<mxfile host="app.diagrams.net" agent="Mozilla/5.0 (Windows NT 10.0; Win64; x64) AppleWebKit/537.36 (KHTML, like Gecko) Chrome/130.0.0.0 Safari/537.36" version="24.8.3" pages="4">
  <diagram name="main" id="03018318-947c-dd8e-b7a3-06fadd420f32">
    <mxGraphModel dx="1366" dy="713" grid="1" gridSize="10" guides="1" tooltips="1" connect="1" arrows="1" fold="1" page="1" pageScale="1" pageWidth="1100" pageHeight="850" background="#ffffff" math="0" shadow="0">
      <root>
        <mxCell id="0" />
        <mxCell id="1" parent="0" />
        <mxCell id="677b7b8949515195-1" value="" style="whiteSpace=wrap;html=1;rounded=0;shadow=0;labelBackgroundColor=none;strokeColor=#000000;strokeWidth=1;fillColor=none;fontFamily=Verdana;fontSize=12;fontColor=#000000;align=center;comic=1;" parent="1" vertex="1">
          <mxGeometry x="20" y="30" width="1060" height="1880" as="geometry" />
        </mxCell>
        <mxCell id="677b7b8949515195-16" value="" style="verticalLabelPosition=bottom;shadow=0;dashed=0;align=center;html=1;verticalAlign=top;strokeWidth=1;shape=mxgraph.mockup.graphics.simpleIcon;strokeColor=#999999;rounded=0;labelBackgroundColor=none;fontFamily=Verdana;fontSize=14;fontColor=#000000;comic=1;" parent="1" vertex="1">
          <mxGeometry x="20" y="20" width="1060" height="320" as="geometry" />
        </mxCell>
        <mxCell id="677b7b8949515195-2" value="LOGO" style="whiteSpace=wrap;html=1;rounded=0;shadow=0;labelBackgroundColor=none;strokeWidth=1;fontFamily=Verdana;fontSize=28;align=center;comic=1;" parent="1" vertex="1">
          <mxGeometry x="40" y="40" width="190" height="50" as="geometry" />
        </mxCell>
        <mxCell id="677b7b8949515195-4" value="&lt;font style=&quot;font-size: 20px;&quot;&gt;COMPANY&lt;/font&gt;" style="text;html=1;points=[];align=center;verticalAlign=middle;spacingTop=-4;fontSize=14;fontFamily=Verdana" parent="1" vertex="1">
          <mxGeometry x="520" y="50" width="130" height="43.33" as="geometry" />
        </mxCell>
        <mxCell id="N7pKeced8nKFfqpnsxfE-2" value="&lt;font style=&quot;font-size: 20px;&quot;&gt;BUSINESS&lt;/font&gt;" style="text;html=1;points=[];align=center;verticalAlign=middle;spacingTop=-4;fontSize=14;fontFamily=Verdana" vertex="1" parent="1">
          <mxGeometry x="650" y="50" width="130" height="43.33" as="geometry" />
        </mxCell>
        <mxCell id="N7pKeced8nKFfqpnsxfE-5" value="&lt;font style=&quot;font-size: 20px;&quot;&gt;PROJECT&lt;/font&gt;" style="text;html=1;points=[];align=center;verticalAlign=middle;spacingTop=-4;fontSize=14;fontFamily=Verdana" vertex="1" parent="1">
          <mxGeometry x="780" y="50" width="130" height="43.33" as="geometry" />
        </mxCell>
        <mxCell id="N7pKeced8nKFfqpnsxfE-6" value="&lt;font style=&quot;font-size: 20px;&quot;&gt;CONTACT&lt;/font&gt;" style="text;html=1;points=[];align=center;verticalAlign=middle;spacingTop=-4;fontSize=14;fontFamily=Verdana" vertex="1" parent="1">
          <mxGeometry x="910" y="50" width="130" height="43.33" as="geometry" />
        </mxCell>
        <mxCell id="N7pKeced8nKFfqpnsxfE-7" value="&lt;div&gt;&lt;b&gt;&lt;font style=&quot;font-size: 20px;&quot;&gt;PICTHURE&lt;/font&gt;&lt;/b&gt;&lt;/div&gt;" style="rounded=1;whiteSpace=wrap;html=1;arcSize=10;" vertex="1" parent="1">
          <mxGeometry x="130" y="400" width="330" height="400" as="geometry" />
        </mxCell>
        <mxCell id="N7pKeced8nKFfqpnsxfE-8" value="" style="rounded=1;whiteSpace=wrap;html=1;arcSize=19;" vertex="1" parent="1">
          <mxGeometry x="140" y="860" width="830" height="400" as="geometry" />
        </mxCell>
        <mxCell id="N7pKeced8nKFfqpnsxfE-9" value="&lt;b&gt;&lt;font style=&quot;font-size: 20px;&quot;&gt;PICTHURE&lt;/font&gt;&lt;/b&gt;" style="rounded=1;whiteSpace=wrap;html=1;arcSize=7;" vertex="1" parent="1">
          <mxGeometry x="130" y="1320" width="330" height="400" as="geometry" />
        </mxCell>
        <mxCell id="N7pKeced8nKFfqpnsxfE-10" value="" style="rounded=0;whiteSpace=wrap;html=1;" vertex="1" parent="1">
          <mxGeometry x="20" y="1790" width="1060" height="120" as="geometry" />
        </mxCell>
        <mxCell id="N7pKeced8nKFfqpnsxfE-11" value="LOGO" style="whiteSpace=wrap;html=1;rounded=0;shadow=0;labelBackgroundColor=none;strokeWidth=1;fontFamily=Verdana;fontSize=28;align=center;comic=1;" vertex="1" parent="1">
          <mxGeometry x="200" y="1835" width="130" height="30" as="geometry" />
        </mxCell>
        <mxCell id="aW9XHl261mi-UuY2ybNo-1" value="&lt;font style=&quot;font-size: 20px;&quot; color=&quot;#ffffff&quot;&gt;TEXT AREA&lt;/font&gt;" style="rounded=0;whiteSpace=wrap;html=1;fillColor=#000000;" vertex="1" parent="1">
          <mxGeometry x="490" y="400" width="470" height="390" as="geometry" />
        </mxCell>
        <mxCell id="aW9XHl261mi-UuY2ybNo-2" value="&lt;span style=&quot;color: rgb(255, 255, 255); font-size: 20px;&quot;&gt;TEXT AREA&lt;/span&gt;" style="rounded=0;whiteSpace=wrap;html=1;fillColor=#000000;" vertex="1" parent="1">
          <mxGeometry x="490" y="1320" width="470" height="390" as="geometry" />
        </mxCell>
        <mxCell id="aW9XHl261mi-UuY2ybNo-3" value="&lt;span style=&quot;color: rgb(255, 255, 255); font-size: 20px;&quot;&gt;TEXT AREA&lt;/span&gt;" style="rounded=0;whiteSpace=wrap;html=1;fillColor=#000000;" vertex="1" parent="1">
          <mxGeometry x="400" y="1812" width="620" height="68" as="geometry" />
        </mxCell>
        <mxCell id="iQbHoDcblK-a6hD_hWAM-2" value="&lt;font style=&quot;font-size: 18px;&quot;&gt;&lt;b&gt;Business &amp;gt;&amp;nbsp; 컨설팅 영역으로 이동&lt;/b&gt;&lt;/font&gt;" style="text;html=1;align=center;verticalAlign=middle;whiteSpace=wrap;rounded=0;fontColor=#FF322B;labelBorderColor=none;labelBackgroundColor=none;textShadow=0;" vertex="1" parent="1">
          <mxGeometry x="575" y="690" width="280" height="30" as="geometry" />
        </mxCell>
        <mxCell id="iQbHoDcblK-a6hD_hWAM-3" value="&lt;font style=&quot;font-size: 18px;&quot;&gt;&lt;b&gt;Business &amp;gt; Solution 영역으로 이동&lt;/b&gt;&lt;/font&gt;" style="text;html=1;align=center;verticalAlign=middle;whiteSpace=wrap;rounded=0;fontColor=#FF322B;labelBorderColor=none;labelBackgroundColor=none;textShadow=0;" vertex="1" parent="1">
          <mxGeometry x="550" y="1620" width="315" height="30" as="geometry" />
        </mxCell>
        <mxCell id="iQbHoDcblK-a6hD_hWAM-4" value="&lt;b&gt;Button&lt;/b&gt;" style="rounded=1;whiteSpace=wrap;html=1;" vertex="1" parent="1">
          <mxGeometry x="580" y="640" width="140" height="40" as="geometry" />
        </mxCell>
        <mxCell id="iQbHoDcblK-a6hD_hWAM-6" value="&lt;font style=&quot;font-size: 20px;&quot; color=&quot;#ffffff&quot;&gt;TEXT AREA&lt;/font&gt;" style="rounded=0;whiteSpace=wrap;html=1;fillColor=#000000;" vertex="1" parent="1">
          <mxGeometry x="200" y="910" width="280" height="310" as="geometry" />
        </mxCell>
        <mxCell id="iQbHoDcblK-a6hD_hWAM-5" value="&lt;b&gt;Button&lt;/b&gt;" style="rounded=1;whiteSpace=wrap;html=1;" vertex="1" parent="1">
          <mxGeometry x="220" y="1130" width="140" height="40" as="geometry" />
        </mxCell>
        <mxCell id="iQbHoDcblK-a6hD_hWAM-1" value="&lt;font style=&quot;font-size: 18px;&quot;&gt;&lt;b&gt;Business &amp;gt; Service 영역으로 이동&lt;/b&gt;&lt;/font&gt;" style="text;html=1;align=center;verticalAlign=middle;whiteSpace=wrap;rounded=0;fontColor=#FF322B;labelBorderColor=none;labelBackgroundColor=none;textShadow=0;" vertex="1" parent="1">
          <mxGeometry x="200" y="1180" width="280" height="30" as="geometry" />
        </mxCell>
        <mxCell id="iQbHoDcblK-a6hD_hWAM-7" value="&lt;b&gt;Button&lt;/b&gt;" style="rounded=1;whiteSpace=wrap;html=1;" vertex="1" parent="1">
          <mxGeometry x="550" y="1570" width="140" height="40" as="geometry" />
        </mxCell>
        <mxCell id="4yGG1FRgdpnhzoA0VAqt-1" value="&lt;div&gt;&lt;b&gt;&lt;font style=&quot;font-size: 20px;&quot;&gt;PICTHURE&lt;/font&gt;&lt;/b&gt;&lt;/div&gt;" style="rounded=1;whiteSpace=wrap;html=1;arcSize=10;" vertex="1" parent="1">
          <mxGeometry x="630" y="892.5" width="255" height="335" as="geometry" />
        </mxCell>
      </root>
    </mxGraphModel>
  </diagram>
  <diagram id="u392dLovdf7iCLZSSPf1" name="COMPANY_회사소개">
    <mxGraphModel dx="2390" dy="1248" grid="1" gridSize="10" guides="1" tooltips="1" connect="1" arrows="1" fold="1" page="1" pageScale="1" pageWidth="827" pageHeight="1169" math="0" shadow="0">
      <root>
        <mxCell id="0" />
        <mxCell id="1" parent="0" />
        <mxCell id="Fxyr2E6oY865Pvk-OLui-1" value="" style="whiteSpace=wrap;html=1;rounded=0;shadow=0;labelBackgroundColor=none;strokeColor=#000000;strokeWidth=1;fillColor=none;fontFamily=Verdana;fontSize=12;fontColor=#000000;align=center;comic=1;" vertex="1" parent="1">
          <mxGeometry x="20" y="30" width="1060" height="2810" as="geometry" />
        </mxCell>
        <mxCell id="Fxyr2E6oY865Pvk-OLui-2" value="" style="verticalLabelPosition=bottom;shadow=0;dashed=0;align=center;html=1;verticalAlign=top;strokeWidth=1;shape=mxgraph.mockup.graphics.simpleIcon;strokeColor=#999999;rounded=0;labelBackgroundColor=none;fontFamily=Verdana;fontSize=14;fontColor=#000000;comic=1;" vertex="1" parent="1">
          <mxGeometry x="20" y="20" width="1060" height="320" as="geometry" />
        </mxCell>
        <mxCell id="Fxyr2E6oY865Pvk-OLui-3" value="LOGO" style="whiteSpace=wrap;html=1;rounded=0;shadow=0;labelBackgroundColor=none;strokeWidth=1;fontFamily=Verdana;fontSize=28;align=center;comic=1;" vertex="1" parent="1">
          <mxGeometry x="40" y="40" width="190" height="50" as="geometry" />
        </mxCell>
        <mxCell id="Fxyr2E6oY865Pvk-OLui-4" value="&lt;font style=&quot;font-size: 20px;&quot;&gt;COMPANY&lt;/font&gt;" style="text;html=1;points=[];align=center;verticalAlign=middle;spacingTop=-4;fontSize=14;fontFamily=Verdana" vertex="1" parent="1">
          <mxGeometry x="520" y="50" width="130" height="43.33" as="geometry" />
        </mxCell>
        <mxCell id="Fxyr2E6oY865Pvk-OLui-5" value="&lt;font style=&quot;font-size: 20px;&quot;&gt;BUSINESS&lt;/font&gt;" style="text;html=1;points=[];align=center;verticalAlign=middle;spacingTop=-4;fontSize=14;fontFamily=Verdana" vertex="1" parent="1">
          <mxGeometry x="650" y="50" width="130" height="43.33" as="geometry" />
        </mxCell>
        <mxCell id="Fxyr2E6oY865Pvk-OLui-6" value="&lt;font style=&quot;font-size: 20px;&quot;&gt;PROJECT&lt;/font&gt;" style="text;html=1;points=[];align=center;verticalAlign=middle;spacingTop=-4;fontSize=14;fontFamily=Verdana" vertex="1" parent="1">
          <mxGeometry x="780" y="50" width="130" height="43.33" as="geometry" />
        </mxCell>
        <mxCell id="Fxyr2E6oY865Pvk-OLui-7" value="&lt;font style=&quot;font-size: 20px;&quot;&gt;CONTACT&lt;/font&gt;" style="text;html=1;points=[];align=center;verticalAlign=middle;spacingTop=-4;fontSize=14;fontFamily=Verdana" vertex="1" parent="1">
          <mxGeometry x="910" y="50" width="130" height="43.33" as="geometry" />
        </mxCell>
        <mxCell id="Fxyr2E6oY865Pvk-OLui-8" value="&lt;b&gt;&lt;font style=&quot;font-size: 20px;&quot;&gt;회사소개&lt;br&gt;&lt;br&gt;&lt;/font&gt;&lt;/b&gt;&lt;b&gt;&lt;font style=&quot;font-size: 20px;&quot;&gt;PICTHURE&lt;/font&gt;&lt;/b&gt;&lt;b&gt;&lt;font style=&quot;font-size: 20px;&quot;&gt;&lt;/font&gt;&lt;/b&gt;" style="rounded=1;whiteSpace=wrap;html=1;arcSize=8;" vertex="1" parent="1">
          <mxGeometry x="130" y="400" width="330" height="400" as="geometry" />
        </mxCell>
        <mxCell id="Fxyr2E6oY865Pvk-OLui-9" value="경영이념&lt;div&gt;&lt;br&gt;&lt;/div&gt;&lt;div&gt;&lt;br&gt;&lt;/div&gt;&lt;div&gt;&lt;br&gt;&lt;/div&gt;&lt;div&gt;&lt;br&gt;&lt;/div&gt;&lt;div&gt;&lt;br&gt;&lt;/div&gt;&lt;div&gt;&lt;br&gt;&lt;/div&gt;&lt;div&gt;&lt;br&gt;&lt;/div&gt;&lt;div&gt;&lt;br&gt;&lt;/div&gt;&lt;div&gt;&lt;br&gt;&lt;/div&gt;&lt;div&gt;&lt;br&gt;&lt;/div&gt;&lt;div&gt;&lt;br&gt;&lt;/div&gt;" style="rounded=1;whiteSpace=wrap;html=1;arcSize=7;fontSize=20;fontStyle=1" vertex="1" parent="1">
          <mxGeometry x="140" y="860" width="830" height="400" as="geometry" />
        </mxCell>
        <mxCell id="Fxyr2E6oY865Pvk-OLui-11" value="" style="rounded=0;whiteSpace=wrap;html=1;" vertex="1" parent="1">
          <mxGeometry x="20" y="2720" width="1060" height="120" as="geometry" />
        </mxCell>
        <mxCell id="Fxyr2E6oY865Pvk-OLui-12" value="LOGO" style="whiteSpace=wrap;html=1;rounded=0;shadow=0;labelBackgroundColor=none;strokeWidth=1;fontFamily=Verdana;fontSize=28;align=center;comic=1;" vertex="1" parent="1">
          <mxGeometry x="200" y="2765" width="130" height="30" as="geometry" />
        </mxCell>
        <mxCell id="Fxyr2E6oY865Pvk-OLui-13" value="&lt;font style=&quot;font-size: 20px;&quot; color=&quot;#ffffff&quot;&gt;TEXT AREA&lt;/font&gt;" style="rounded=0;whiteSpace=wrap;html=1;fillColor=#000000;" vertex="1" parent="1">
          <mxGeometry x="490" y="400" width="470" height="390" as="geometry" />
        </mxCell>
        <mxCell id="Fxyr2E6oY865Pvk-OLui-15" value="&lt;span style=&quot;color: rgb(255, 255, 255); font-size: 20px;&quot;&gt;TEXT AREA&lt;/span&gt;" style="rounded=0;whiteSpace=wrap;html=1;fillColor=#000000;" vertex="1" parent="1">
          <mxGeometry x="400" y="2742" width="620" height="68" as="geometry" />
        </mxCell>
        <mxCell id="mcS8ReQJnhq1APwwrMgO-1" value="&lt;span style=&quot;font-size: 30px;&quot;&gt;&lt;b&gt;COMPANY&lt;/b&gt;&lt;/span&gt;" style="text;html=1;align=center;verticalAlign=middle;whiteSpace=wrap;rounded=0;" vertex="1" parent="1">
          <mxGeometry x="290" y="180" width="520" height="30" as="geometry" />
        </mxCell>
        <mxCell id="lz_dMCQt8cM4UyIKs_vo-1" value="&lt;b&gt;&lt;font style=&quot;font-size: 20px;&quot;&gt;주요 연혁&lt;/font&gt;&lt;/b&gt;&lt;div&gt;&lt;b&gt;&lt;font style=&quot;font-size: 20px;&quot;&gt;&lt;br&gt;&lt;/font&gt;&lt;/b&gt;&lt;/div&gt;&lt;div&gt;&lt;b&gt;&lt;font style=&quot;font-size: 20px;&quot;&gt;&lt;br&gt;&lt;/font&gt;&lt;/b&gt;&lt;/div&gt;&lt;div&gt;&lt;b&gt;&lt;font style=&quot;font-size: 20px;&quot;&gt;&lt;br&gt;&lt;/font&gt;&lt;/b&gt;&lt;/div&gt;&lt;div&gt;&lt;b&gt;&lt;font style=&quot;font-size: 20px;&quot;&gt;&lt;br&gt;&lt;/font&gt;&lt;/b&gt;&lt;/div&gt;&lt;div&gt;&lt;b&gt;&lt;font style=&quot;font-size: 20px;&quot;&gt;&lt;br&gt;&lt;/font&gt;&lt;/b&gt;&lt;/div&gt;&lt;div&gt;&lt;b&gt;&lt;font style=&quot;font-size: 20px;&quot;&gt;&lt;br&gt;&lt;/font&gt;&lt;/b&gt;&lt;/div&gt;&lt;div&gt;&lt;b&gt;&lt;font style=&quot;font-size: 20px;&quot;&gt;&lt;br&gt;&lt;/font&gt;&lt;/b&gt;&lt;/div&gt;&lt;div&gt;&lt;b&gt;&lt;font style=&quot;font-size: 20px;&quot;&gt;&lt;br&gt;&lt;/font&gt;&lt;/b&gt;&lt;/div&gt;&lt;div&gt;&lt;b&gt;&lt;font style=&quot;font-size: 20px;&quot;&gt;&lt;br&gt;&lt;/font&gt;&lt;/b&gt;&lt;/div&gt;&lt;div&gt;&lt;b&gt;&lt;font style=&quot;font-size: 20px;&quot;&gt;&lt;br&gt;&lt;/font&gt;&lt;/b&gt;&lt;/div&gt;&lt;div&gt;&lt;b&gt;&lt;font style=&quot;font-size: 20px;&quot;&gt;&lt;br&gt;&lt;/font&gt;&lt;/b&gt;&lt;/div&gt;" style="rounded=1;whiteSpace=wrap;html=1;arcSize=7;" vertex="1" parent="1">
          <mxGeometry x="140" y="1340" width="830" height="400" as="geometry" />
        </mxCell>
        <mxCell id="lz_dMCQt8cM4UyIKs_vo-2" value="&lt;span style=&quot;font-size: 20px;&quot;&gt;&lt;b&gt;조직도&lt;/b&gt;&lt;/span&gt;&lt;div&gt;&lt;span style=&quot;font-size: 20px;&quot;&gt;&lt;b&gt;&lt;br&gt;&lt;/b&gt;&lt;/span&gt;&lt;/div&gt;&lt;div&gt;&lt;span style=&quot;font-size: 20px;&quot;&gt;&lt;b&gt;&lt;br&gt;&lt;/b&gt;&lt;/span&gt;&lt;/div&gt;&lt;div&gt;&lt;span style=&quot;font-size: 20px;&quot;&gt;&lt;b&gt;&lt;br&gt;&lt;/b&gt;&lt;/span&gt;&lt;/div&gt;&lt;div&gt;&lt;span style=&quot;font-size: 20px;&quot;&gt;&lt;b&gt;&lt;br&gt;&lt;/b&gt;&lt;/span&gt;&lt;/div&gt;&lt;div&gt;&lt;span style=&quot;font-size: 20px;&quot;&gt;&lt;b&gt;&lt;br&gt;&lt;/b&gt;&lt;/span&gt;&lt;/div&gt;&lt;div&gt;&lt;span style=&quot;font-size: 20px;&quot;&gt;&lt;b&gt;&lt;br&gt;&lt;/b&gt;&lt;/span&gt;&lt;/div&gt;&lt;div&gt;&lt;span style=&quot;font-size: 20px;&quot;&gt;&lt;b&gt;&lt;br&gt;&lt;/b&gt;&lt;/span&gt;&lt;/div&gt;&lt;div&gt;&lt;span style=&quot;font-size: 20px;&quot;&gt;&lt;b&gt;&lt;br&gt;&lt;/b&gt;&lt;/span&gt;&lt;/div&gt;&lt;div&gt;&lt;span style=&quot;font-size: 20px;&quot;&gt;&lt;b&gt;&lt;br&gt;&lt;/b&gt;&lt;/span&gt;&lt;/div&gt;&lt;div&gt;&lt;span style=&quot;font-size: 20px;&quot;&gt;&lt;b&gt;&lt;br&gt;&lt;/b&gt;&lt;/span&gt;&lt;/div&gt;" style="rounded=1;whiteSpace=wrap;html=1;arcSize=7;" vertex="1" parent="1">
          <mxGeometry x="140" y="1800" width="830" height="400" as="geometry" />
        </mxCell>
        <mxCell id="b2tIPWCP3lwm9Kr-n82G-1" value="&lt;b&gt;&lt;font style=&quot;font-size: 20px;&quot;&gt;오시는 길&lt;/font&gt;&lt;/b&gt;&lt;div&gt;&lt;b&gt;&lt;font style=&quot;font-size: 20px;&quot;&gt;&lt;br&gt;&lt;/font&gt;&lt;/b&gt;&lt;/div&gt;&lt;div&gt;&lt;b&gt;&lt;font style=&quot;font-size: 20px;&quot;&gt;&lt;br&gt;&lt;/font&gt;&lt;/b&gt;&lt;/div&gt;&lt;div&gt;&lt;b&gt;&lt;font style=&quot;font-size: 20px;&quot;&gt;&lt;br&gt;&lt;/font&gt;&lt;/b&gt;&lt;/div&gt;&lt;div&gt;&lt;b&gt;&lt;font style=&quot;font-size: 20px;&quot;&gt;&lt;br&gt;&lt;/font&gt;&lt;/b&gt;&lt;/div&gt;&lt;div&gt;&lt;b&gt;&lt;font style=&quot;font-size: 20px;&quot;&gt;&lt;br&gt;&lt;/font&gt;&lt;/b&gt;&lt;/div&gt;&lt;div&gt;&lt;b&gt;&lt;font style=&quot;font-size: 20px;&quot;&gt;&lt;br&gt;&lt;/font&gt;&lt;/b&gt;&lt;/div&gt;&lt;div&gt;&lt;b&gt;&lt;font style=&quot;font-size: 20px;&quot;&gt;&lt;br&gt;&lt;/font&gt;&lt;/b&gt;&lt;/div&gt;&lt;div&gt;&lt;b&gt;&lt;font style=&quot;font-size: 20px;&quot;&gt;&lt;br&gt;&lt;/font&gt;&lt;/b&gt;&lt;/div&gt;&lt;div&gt;&lt;b&gt;&lt;font style=&quot;font-size: 20px;&quot;&gt;&lt;br&gt;&lt;/font&gt;&lt;/b&gt;&lt;/div&gt;&lt;div&gt;&lt;b&gt;&lt;font style=&quot;font-size: 20px;&quot;&gt;&lt;br&gt;&lt;/font&gt;&lt;/b&gt;&lt;/div&gt;&lt;div&gt;&lt;b&gt;&lt;font style=&quot;font-size: 20px;&quot;&gt;&lt;br&gt;&lt;/font&gt;&lt;/b&gt;&lt;/div&gt;" style="rounded=1;whiteSpace=wrap;html=1;arcSize=7;" vertex="1" parent="1">
          <mxGeometry x="140" y="2270" width="830" height="400" as="geometry" />
        </mxCell>
        <mxCell id="b2tIPWCP3lwm9Kr-n82G-2" value="&lt;font style=&quot;font-size: 20px;&quot; color=&quot;#ffffff&quot;&gt;TEXT AREA&lt;/font&gt;" style="rounded=0;whiteSpace=wrap;html=1;fillColor=#000000;" vertex="1" parent="1">
          <mxGeometry x="170" y="1440" width="770" height="260" as="geometry" />
        </mxCell>
        <mxCell id="b2tIPWCP3lwm9Kr-n82G-3" value="&lt;font style=&quot;font-size: 20px;&quot; color=&quot;#ffffff&quot;&gt;TEXT AREA&lt;/font&gt;" style="rounded=0;whiteSpace=wrap;html=1;fillColor=#000000;" vertex="1" parent="1">
          <mxGeometry x="170" y="960" width="770" height="260" as="geometry" />
        </mxCell>
        <mxCell id="b2tIPWCP3lwm9Kr-n82G-4" value="&lt;b&gt;&lt;font style=&quot;font-size: 20px;&quot;&gt;PICTHURE&lt;/font&gt;&lt;/b&gt;&lt;b&gt;&lt;font style=&quot;font-size: 20px;&quot;&gt;&lt;/font&gt;&lt;/b&gt;" style="rounded=1;whiteSpace=wrap;html=1;arcSize=8;" vertex="1" parent="1">
          <mxGeometry x="170" y="1930" width="770" height="240" as="geometry" />
        </mxCell>
        <mxCell id="b2tIPWCP3lwm9Kr-n82G-5" value="&lt;b&gt;&lt;font style=&quot;font-size: 20px;&quot;&gt;PICTHURE&lt;/font&gt;&lt;/b&gt;&lt;b&gt;&lt;font style=&quot;font-size: 20px;&quot;&gt;&lt;/font&gt;&lt;/b&gt;" style="rounded=1;whiteSpace=wrap;html=1;arcSize=8;" vertex="1" parent="1">
          <mxGeometry x="170" y="2370" width="770" height="280" as="geometry" />
        </mxCell>
      </root>
    </mxGraphModel>
  </diagram>
  <diagram id="Pvw2jJUhO54COgkbwUWj" name="COMPANY_인재채용">
    <mxGraphModel dx="2868" dy="1498" grid="1" gridSize="10" guides="1" tooltips="1" connect="1" arrows="1" fold="1" page="1" pageScale="1" pageWidth="827" pageHeight="1169" math="0" shadow="0">
      <root>
        <mxCell id="0" />
        <mxCell id="1" parent="0" />
        <mxCell id="a0-H8ZW1667CnV2vsSIa-1" value="" style="whiteSpace=wrap;html=1;rounded=0;shadow=0;labelBackgroundColor=none;strokeColor=#000000;strokeWidth=1;fillColor=none;fontFamily=Verdana;fontSize=12;fontColor=#000000;align=center;comic=1;" vertex="1" parent="1">
          <mxGeometry x="20" y="30" width="1060" height="2460" as="geometry" />
        </mxCell>
        <mxCell id="a0-H8ZW1667CnV2vsSIa-2" value="" style="verticalLabelPosition=bottom;shadow=0;dashed=0;align=center;html=1;verticalAlign=top;strokeWidth=1;shape=mxgraph.mockup.graphics.simpleIcon;strokeColor=#999999;rounded=0;labelBackgroundColor=none;fontFamily=Verdana;fontSize=14;fontColor=#000000;comic=1;" vertex="1" parent="1">
          <mxGeometry x="20" y="20" width="1060" height="320" as="geometry" />
        </mxCell>
        <mxCell id="a0-H8ZW1667CnV2vsSIa-3" value="LOGO" style="whiteSpace=wrap;html=1;rounded=0;shadow=0;labelBackgroundColor=none;strokeWidth=1;fontFamily=Verdana;fontSize=28;align=center;comic=1;" vertex="1" parent="1">
          <mxGeometry x="40" y="40" width="190" height="50" as="geometry" />
        </mxCell>
        <mxCell id="a0-H8ZW1667CnV2vsSIa-4" value="&lt;font style=&quot;font-size: 20px;&quot;&gt;COMPANY&lt;/font&gt;" style="text;html=1;points=[];align=center;verticalAlign=middle;spacingTop=-4;fontSize=14;fontFamily=Verdana" vertex="1" parent="1">
          <mxGeometry x="520" y="50" width="130" height="43.33" as="geometry" />
        </mxCell>
        <mxCell id="a0-H8ZW1667CnV2vsSIa-5" value="&lt;font style=&quot;font-size: 20px;&quot;&gt;BUSINESS&lt;/font&gt;" style="text;html=1;points=[];align=center;verticalAlign=middle;spacingTop=-4;fontSize=14;fontFamily=Verdana" vertex="1" parent="1">
          <mxGeometry x="650" y="50" width="130" height="43.33" as="geometry" />
        </mxCell>
        <mxCell id="a0-H8ZW1667CnV2vsSIa-6" value="&lt;font style=&quot;font-size: 20px;&quot;&gt;PROJECT&lt;/font&gt;" style="text;html=1;points=[];align=center;verticalAlign=middle;spacingTop=-4;fontSize=14;fontFamily=Verdana" vertex="1" parent="1">
          <mxGeometry x="780" y="50" width="130" height="43.33" as="geometry" />
        </mxCell>
        <mxCell id="a0-H8ZW1667CnV2vsSIa-7" value="&lt;font style=&quot;font-size: 20px;&quot;&gt;CONTACT&lt;/font&gt;" style="text;html=1;points=[];align=center;verticalAlign=middle;spacingTop=-4;fontSize=14;fontFamily=Verdana" vertex="1" parent="1">
          <mxGeometry x="910" y="50" width="130" height="43.33" as="geometry" />
        </mxCell>
        <mxCell id="a0-H8ZW1667CnV2vsSIa-8" value="&lt;b&gt;&lt;font style=&quot;font-size: 20px;&quot;&gt;인재상&lt;/font&gt;&lt;/b&gt;&lt;div&gt;&lt;b&gt;&lt;font style=&quot;font-size: 20px;&quot;&gt;&lt;br&gt;&lt;/font&gt;&lt;/b&gt;&lt;/div&gt;&lt;div&gt;&lt;b&gt;&lt;font style=&quot;font-size: 20px;&quot;&gt;&lt;br&gt;&lt;/font&gt;&lt;/b&gt;&lt;/div&gt;&lt;div&gt;&lt;b&gt;&lt;font style=&quot;font-size: 20px;&quot;&gt;&lt;br&gt;&lt;/font&gt;&lt;/b&gt;&lt;/div&gt;&lt;div&gt;&lt;b&gt;&lt;font style=&quot;font-size: 20px;&quot;&gt;&lt;br&gt;&lt;/font&gt;&lt;/b&gt;&lt;/div&gt;&lt;div&gt;&lt;b&gt;&lt;font style=&quot;font-size: 20px;&quot;&gt;&lt;br&gt;&lt;/font&gt;&lt;/b&gt;&lt;/div&gt;&lt;div&gt;&lt;b&gt;&lt;font style=&quot;font-size: 20px;&quot;&gt;&lt;br&gt;&lt;/font&gt;&lt;/b&gt;&lt;/div&gt;&lt;div&gt;&lt;b&gt;&lt;font style=&quot;font-size: 20px;&quot;&gt;&lt;br&gt;&lt;/font&gt;&lt;/b&gt;&lt;/div&gt;&lt;div&gt;&lt;b&gt;&lt;font style=&quot;font-size: 20px;&quot;&gt;&lt;br&gt;&lt;/font&gt;&lt;/b&gt;&lt;/div&gt;&lt;div&gt;&lt;b&gt;&lt;font style=&quot;font-size: 20px;&quot;&gt;&lt;br&gt;&lt;/font&gt;&lt;/b&gt;&lt;/div&gt;&lt;div&gt;&lt;b&gt;&lt;font style=&quot;font-size: 20px;&quot;&gt;&lt;br&gt;&lt;/font&gt;&lt;/b&gt;&lt;/div&gt;" style="rounded=1;whiteSpace=wrap;html=1;arcSize=10;" vertex="1" parent="1">
          <mxGeometry x="130" y="400" width="840" height="400" as="geometry" />
        </mxCell>
        <mxCell id="a0-H8ZW1667CnV2vsSIa-9" value="&lt;font style=&quot;font-size: 20px;&quot;&gt;&lt;b&gt;복리후생&lt;/b&gt;&lt;/font&gt;&lt;div&gt;&lt;font style=&quot;font-size: 20px;&quot;&gt;&lt;b&gt;&lt;br&gt;&lt;/b&gt;&lt;/font&gt;&lt;/div&gt;&lt;div&gt;&lt;font style=&quot;font-size: 20px;&quot;&gt;&lt;b&gt;&lt;br&gt;&lt;/b&gt;&lt;/font&gt;&lt;/div&gt;&lt;div&gt;&lt;font style=&quot;font-size: 20px;&quot;&gt;&lt;b&gt;&lt;br&gt;&lt;/b&gt;&lt;/font&gt;&lt;/div&gt;&lt;div&gt;&lt;font style=&quot;font-size: 20px;&quot;&gt;&lt;b&gt;&lt;br&gt;&lt;/b&gt;&lt;/font&gt;&lt;/div&gt;&lt;div&gt;&lt;font style=&quot;font-size: 20px;&quot;&gt;&lt;b&gt;&lt;br&gt;&lt;/b&gt;&lt;/font&gt;&lt;/div&gt;&lt;div&gt;&lt;font style=&quot;font-size: 20px;&quot;&gt;&lt;b&gt;&lt;br&gt;&lt;/b&gt;&lt;/font&gt;&lt;/div&gt;&lt;div&gt;&lt;font style=&quot;font-size: 20px;&quot;&gt;&lt;b&gt;&lt;br&gt;&lt;/b&gt;&lt;/font&gt;&lt;/div&gt;&lt;div&gt;&lt;font style=&quot;font-size: 20px;&quot;&gt;&lt;b&gt;&lt;br&gt;&lt;/b&gt;&lt;/font&gt;&lt;/div&gt;&lt;div&gt;&lt;font style=&quot;font-size: 20px;&quot;&gt;&lt;b&gt;&lt;br&gt;&lt;/b&gt;&lt;/font&gt;&lt;/div&gt;&lt;div&gt;&lt;font style=&quot;font-size: 20px;&quot;&gt;&lt;b&gt;&lt;br&gt;&lt;/b&gt;&lt;/font&gt;&lt;/div&gt;&lt;div&gt;&lt;font style=&quot;font-size: 20px;&quot;&gt;&lt;b&gt;&lt;br&gt;&lt;/b&gt;&lt;/font&gt;&lt;/div&gt;&lt;div&gt;&lt;font style=&quot;font-size: 20px;&quot;&gt;&lt;b&gt;&lt;br&gt;&lt;/b&gt;&lt;/font&gt;&lt;/div&gt;&lt;div&gt;&lt;font style=&quot;font-size: 20px;&quot;&gt;&lt;b&gt;&lt;br&gt;&lt;/b&gt;&lt;/font&gt;&lt;/div&gt;&lt;div&gt;&lt;font style=&quot;font-size: 20px;&quot;&gt;&lt;b&gt;&lt;br&gt;&lt;/b&gt;&lt;/font&gt;&lt;/div&gt;&lt;div&gt;&lt;font style=&quot;font-size: 20px;&quot;&gt;&lt;b&gt;&lt;br&gt;&lt;/b&gt;&lt;/font&gt;&lt;/div&gt;&lt;div&gt;&lt;font style=&quot;font-size: 20px;&quot;&gt;&lt;b&gt;&lt;br&gt;&lt;/b&gt;&lt;/font&gt;&lt;/div&gt;&lt;div&gt;&lt;font style=&quot;font-size: 20px;&quot;&gt;&lt;b&gt;&lt;br&gt;&lt;/b&gt;&lt;/font&gt;&lt;/div&gt;" style="rounded=1;whiteSpace=wrap;html=1;arcSize=7;" vertex="1" parent="1">
          <mxGeometry x="140" y="860" width="830" height="560" as="geometry" />
        </mxCell>
        <mxCell id="a0-H8ZW1667CnV2vsSIa-11" value="" style="rounded=0;whiteSpace=wrap;html=1;" vertex="1" parent="1">
          <mxGeometry x="20" y="2370" width="1060" height="120" as="geometry" />
        </mxCell>
        <mxCell id="a0-H8ZW1667CnV2vsSIa-12" value="LOGO" style="whiteSpace=wrap;html=1;rounded=0;shadow=0;labelBackgroundColor=none;strokeWidth=1;fontFamily=Verdana;fontSize=28;align=center;comic=1;" vertex="1" parent="1">
          <mxGeometry x="200" y="2415" width="130" height="30" as="geometry" />
        </mxCell>
        <mxCell id="a0-H8ZW1667CnV2vsSIa-15" value="&lt;span style=&quot;color: rgb(255, 255, 255); font-size: 20px;&quot;&gt;TEXT AREA&lt;/span&gt;" style="rounded=0;whiteSpace=wrap;html=1;fillColor=#000000;" vertex="1" parent="1">
          <mxGeometry x="400" y="2392" width="620" height="68" as="geometry" />
        </mxCell>
        <mxCell id="uXtTvfCrjWby9d17xnI3-1" value="&lt;span style=&quot;font-size: 30px;&quot;&gt;&lt;b&gt;COMPANY&lt;/b&gt;&lt;/span&gt;" style="text;html=1;align=center;verticalAlign=middle;whiteSpace=wrap;rounded=0;" vertex="1" parent="1">
          <mxGeometry x="290" y="180" width="520" height="30" as="geometry" />
        </mxCell>
        <mxCell id="3kiEmL95gFEYFu74ZCWC-1" value="&lt;b&gt;&lt;font style=&quot;font-size: 20px;&quot;&gt;PICTHURE&lt;/font&gt;&lt;/b&gt;" style="rounded=1;whiteSpace=wrap;html=1;arcSize=10;" vertex="1" parent="1">
          <mxGeometry x="170" y="540" width="236.25" height="200" as="geometry" />
        </mxCell>
        <mxCell id="3kiEmL95gFEYFu74ZCWC-3" value="&lt;b&gt;&lt;font style=&quot;font-size: 20px;&quot;&gt;PICTHURE&lt;/font&gt;&lt;/b&gt;" style="rounded=1;whiteSpace=wrap;html=1;arcSize=10;" vertex="1" parent="1">
          <mxGeometry x="440" y="540" width="236.25" height="200" as="geometry" />
        </mxCell>
        <mxCell id="3kiEmL95gFEYFu74ZCWC-4" value="&lt;b&gt;&lt;font style=&quot;font-size: 20px;&quot;&gt;PICTHURE&lt;/font&gt;&lt;/b&gt;" style="rounded=1;whiteSpace=wrap;html=1;arcSize=10;" vertex="1" parent="1">
          <mxGeometry x="710" y="540" width="236.25" height="200" as="geometry" />
        </mxCell>
        <mxCell id="3kiEmL95gFEYFu74ZCWC-9" value="" style="ellipse;whiteSpace=wrap;html=1;aspect=fixed;" vertex="1" parent="1">
          <mxGeometry x="210" y="990" width="90" height="90" as="geometry" />
        </mxCell>
        <mxCell id="3kiEmL95gFEYFu74ZCWC-10" value="" style="ellipse;whiteSpace=wrap;html=1;aspect=fixed;" vertex="1" parent="1">
          <mxGeometry x="510" y="990" width="90" height="90" as="geometry" />
        </mxCell>
        <mxCell id="3kiEmL95gFEYFu74ZCWC-11" value="" style="ellipse;whiteSpace=wrap;html=1;aspect=fixed;" vertex="1" parent="1">
          <mxGeometry x="810" y="990" width="90" height="90" as="geometry" />
        </mxCell>
        <mxCell id="3kiEmL95gFEYFu74ZCWC-12" value="" style="ellipse;whiteSpace=wrap;html=1;aspect=fixed;" vertex="1" parent="1">
          <mxGeometry x="810" y="1130" width="90" height="90" as="geometry" />
        </mxCell>
        <mxCell id="3kiEmL95gFEYFu74ZCWC-13" value="" style="ellipse;whiteSpace=wrap;html=1;aspect=fixed;" vertex="1" parent="1">
          <mxGeometry x="210" y="1130" width="90" height="90" as="geometry" />
        </mxCell>
        <mxCell id="3kiEmL95gFEYFu74ZCWC-14" value="" style="ellipse;whiteSpace=wrap;html=1;aspect=fixed;" vertex="1" parent="1">
          <mxGeometry x="510" y="1130" width="90" height="90" as="geometry" />
        </mxCell>
        <mxCell id="3kiEmL95gFEYFu74ZCWC-15" value="" style="ellipse;whiteSpace=wrap;html=1;aspect=fixed;" vertex="1" parent="1">
          <mxGeometry x="810" y="1270" width="90" height="90" as="geometry" />
        </mxCell>
        <mxCell id="3kiEmL95gFEYFu74ZCWC-16" value="" style="ellipse;whiteSpace=wrap;html=1;aspect=fixed;" vertex="1" parent="1">
          <mxGeometry x="210" y="1270" width="90" height="90" as="geometry" />
        </mxCell>
        <mxCell id="3kiEmL95gFEYFu74ZCWC-17" value="" style="ellipse;whiteSpace=wrap;html=1;aspect=fixed;" vertex="1" parent="1">
          <mxGeometry x="510" y="1270" width="90" height="90" as="geometry" />
        </mxCell>
        <mxCell id="3kiEmL95gFEYFu74ZCWC-18" value="&lt;font style=&quot;font-size: 20px;&quot;&gt;&lt;b&gt;채용안내&lt;/b&gt;&lt;/font&gt;&lt;div&gt;&lt;font style=&quot;font-size: 20px;&quot;&gt;&lt;b&gt;&lt;br&gt;&lt;/b&gt;&lt;/font&gt;&lt;/div&gt;&lt;div&gt;&lt;font style=&quot;font-size: 20px;&quot;&gt;&lt;b&gt;&lt;br&gt;&lt;/b&gt;&lt;/font&gt;&lt;/div&gt;&lt;div&gt;&lt;font style=&quot;font-size: 20px;&quot;&gt;&lt;b&gt;&lt;br&gt;&lt;/b&gt;&lt;/font&gt;&lt;/div&gt;&lt;div&gt;&lt;font style=&quot;font-size: 20px;&quot;&gt;&lt;b&gt;&lt;br&gt;&lt;/b&gt;&lt;/font&gt;&lt;/div&gt;&lt;div&gt;&lt;font style=&quot;font-size: 20px;&quot;&gt;&lt;b&gt;&lt;br&gt;&lt;/b&gt;&lt;/font&gt;&lt;/div&gt;&lt;div&gt;&lt;font style=&quot;font-size: 20px;&quot;&gt;&lt;b&gt;&lt;br&gt;&lt;/b&gt;&lt;/font&gt;&lt;/div&gt;&lt;div&gt;&lt;font style=&quot;font-size: 20px;&quot;&gt;&lt;b&gt;&lt;br&gt;&lt;/b&gt;&lt;/font&gt;&lt;/div&gt;&lt;div&gt;&lt;font style=&quot;font-size: 20px;&quot;&gt;&lt;b&gt;&lt;br&gt;&lt;/b&gt;&lt;/font&gt;&lt;/div&gt;&lt;div&gt;&lt;font style=&quot;font-size: 20px;&quot;&gt;&lt;b&gt;&lt;br&gt;&lt;/b&gt;&lt;/font&gt;&lt;/div&gt;&lt;div&gt;&lt;font style=&quot;font-size: 20px;&quot;&gt;&lt;b&gt;&lt;br&gt;&lt;/b&gt;&lt;/font&gt;&lt;/div&gt;&lt;div&gt;&lt;font style=&quot;font-size: 20px;&quot;&gt;&lt;b&gt;&lt;br&gt;&lt;/b&gt;&lt;/font&gt;&lt;/div&gt;&lt;div&gt;&lt;font style=&quot;font-size: 20px;&quot;&gt;&lt;b&gt;&lt;br&gt;&lt;/b&gt;&lt;/font&gt;&lt;/div&gt;&lt;div&gt;&lt;font style=&quot;font-size: 20px;&quot;&gt;&lt;b&gt;&lt;br&gt;&lt;/b&gt;&lt;/font&gt;&lt;/div&gt;&lt;div&gt;&lt;font style=&quot;font-size: 20px;&quot;&gt;&lt;b&gt;&lt;br&gt;&lt;/b&gt;&lt;/font&gt;&lt;/div&gt;&lt;div&gt;&lt;font style=&quot;font-size: 20px;&quot;&gt;&lt;b&gt;&lt;br&gt;&lt;/b&gt;&lt;/font&gt;&lt;/div&gt;&lt;div&gt;&lt;font style=&quot;font-size: 20px;&quot;&gt;&lt;b&gt;&lt;br&gt;&lt;/b&gt;&lt;/font&gt;&lt;/div&gt;&lt;div&gt;&lt;font style=&quot;font-size: 20px;&quot;&gt;&lt;b&gt;&lt;br&gt;&lt;/b&gt;&lt;/font&gt;&lt;/div&gt;&lt;div&gt;&lt;font style=&quot;font-size: 20px;&quot;&gt;&lt;b&gt;&lt;br&gt;&lt;/b&gt;&lt;/font&gt;&lt;/div&gt;&lt;div&gt;&lt;font style=&quot;font-size: 20px;&quot;&gt;&lt;b&gt;&lt;br&gt;&lt;/b&gt;&lt;/font&gt;&lt;/div&gt;&lt;div&gt;&lt;font style=&quot;font-size: 20px;&quot;&gt;&lt;b&gt;&lt;br&gt;&lt;/b&gt;&lt;/font&gt;&lt;/div&gt;&lt;div&gt;&lt;font style=&quot;font-size: 20px;&quot;&gt;&lt;b&gt;&lt;br&gt;&lt;/b&gt;&lt;/font&gt;&lt;/div&gt;&lt;div&gt;&lt;font style=&quot;font-size: 20px;&quot;&gt;&lt;b&gt;&lt;br&gt;&lt;/b&gt;&lt;/font&gt;&lt;/div&gt;&lt;div&gt;&lt;font style=&quot;font-size: 20px;&quot;&gt;&lt;b&gt;&lt;br&gt;&lt;/b&gt;&lt;/font&gt;&lt;/div&gt;&lt;div&gt;&lt;font style=&quot;font-size: 20px;&quot;&gt;&lt;b&gt;&lt;br&gt;&lt;/b&gt;&lt;/font&gt;&lt;/div&gt;&lt;div&gt;&lt;font style=&quot;font-size: 20px;&quot;&gt;&lt;b&gt;&lt;br&gt;&lt;/b&gt;&lt;/font&gt;&lt;/div&gt;&lt;div&gt;&lt;font style=&quot;font-size: 20px;&quot;&gt;&lt;b&gt;&lt;br&gt;&lt;/b&gt;&lt;/font&gt;&lt;/div&gt;&lt;div&gt;&lt;font style=&quot;font-size: 20px;&quot;&gt;&lt;b&gt;&lt;br&gt;&lt;/b&gt;&lt;/font&gt;&lt;/div&gt;&lt;div&gt;&lt;font style=&quot;font-size: 20px;&quot;&gt;&lt;b&gt;&lt;br&gt;&lt;/b&gt;&lt;/font&gt;&lt;/div&gt;&lt;div&gt;&lt;font style=&quot;font-size: 20px;&quot;&gt;&lt;b&gt;&lt;br&gt;&lt;/b&gt;&lt;/font&gt;&lt;/div&gt;" style="rounded=1;whiteSpace=wrap;html=1;arcSize=7;" vertex="1" parent="1">
          <mxGeometry x="140" y="1490" width="830" height="840" as="geometry" />
        </mxCell>
        <mxCell id="3kiEmL95gFEYFu74ZCWC-19" value="Table" style="shape=table;startSize=30;container=1;collapsible=0;childLayout=tableLayout;strokeColor=default;fontSize=16;" vertex="1" parent="1">
          <mxGeometry x="190" y="1620" width="740" height="160" as="geometry" />
        </mxCell>
        <mxCell id="3kiEmL95gFEYFu74ZCWC-20" value="" style="shape=tableRow;horizontal=0;startSize=0;swimlaneHead=0;swimlaneBody=0;strokeColor=inherit;top=0;left=0;bottom=0;right=0;collapsible=0;dropTarget=0;fillColor=none;points=[[0,0.5],[1,0.5]];portConstraint=eastwest;fontSize=16;" vertex="1" parent="3kiEmL95gFEYFu74ZCWC-19">
          <mxGeometry y="30" width="740" height="43" as="geometry" />
        </mxCell>
        <mxCell id="3kiEmL95gFEYFu74ZCWC-21" value="" style="shape=partialRectangle;html=1;whiteSpace=wrap;connectable=0;strokeColor=inherit;overflow=hidden;fillColor=none;top=0;left=0;bottom=0;right=0;pointerEvents=1;fontSize=16;" vertex="1" parent="3kiEmL95gFEYFu74ZCWC-20">
          <mxGeometry width="246" height="43" as="geometry">
            <mxRectangle width="246" height="43" as="alternateBounds" />
          </mxGeometry>
        </mxCell>
        <mxCell id="3kiEmL95gFEYFu74ZCWC-22" value="" style="shape=partialRectangle;html=1;whiteSpace=wrap;connectable=0;strokeColor=inherit;overflow=hidden;fillColor=none;top=0;left=0;bottom=0;right=0;pointerEvents=1;fontSize=16;" vertex="1" parent="3kiEmL95gFEYFu74ZCWC-20">
          <mxGeometry x="246" width="248" height="43" as="geometry">
            <mxRectangle width="248" height="43" as="alternateBounds" />
          </mxGeometry>
        </mxCell>
        <mxCell id="3kiEmL95gFEYFu74ZCWC-23" value="" style="shape=partialRectangle;html=1;whiteSpace=wrap;connectable=0;strokeColor=inherit;overflow=hidden;fillColor=none;top=0;left=0;bottom=0;right=0;pointerEvents=1;fontSize=16;" vertex="1" parent="3kiEmL95gFEYFu74ZCWC-20">
          <mxGeometry x="494" width="246" height="43" as="geometry">
            <mxRectangle width="246" height="43" as="alternateBounds" />
          </mxGeometry>
        </mxCell>
        <mxCell id="3kiEmL95gFEYFu74ZCWC-24" value="" style="shape=tableRow;horizontal=0;startSize=0;swimlaneHead=0;swimlaneBody=0;strokeColor=inherit;top=0;left=0;bottom=0;right=0;collapsible=0;dropTarget=0;fillColor=none;points=[[0,0.5],[1,0.5]];portConstraint=eastwest;fontSize=16;" vertex="1" parent="3kiEmL95gFEYFu74ZCWC-19">
          <mxGeometry y="73" width="740" height="44" as="geometry" />
        </mxCell>
        <mxCell id="3kiEmL95gFEYFu74ZCWC-25" value="" style="shape=partialRectangle;html=1;whiteSpace=wrap;connectable=0;strokeColor=inherit;overflow=hidden;fillColor=none;top=0;left=0;bottom=0;right=0;pointerEvents=1;fontSize=16;" vertex="1" parent="3kiEmL95gFEYFu74ZCWC-24">
          <mxGeometry width="246" height="44" as="geometry">
            <mxRectangle width="246" height="44" as="alternateBounds" />
          </mxGeometry>
        </mxCell>
        <mxCell id="3kiEmL95gFEYFu74ZCWC-26" value="" style="shape=partialRectangle;html=1;whiteSpace=wrap;connectable=0;strokeColor=inherit;overflow=hidden;fillColor=none;top=0;left=0;bottom=0;right=0;pointerEvents=1;fontSize=16;" vertex="1" parent="3kiEmL95gFEYFu74ZCWC-24">
          <mxGeometry x="246" width="248" height="44" as="geometry">
            <mxRectangle width="248" height="44" as="alternateBounds" />
          </mxGeometry>
        </mxCell>
        <mxCell id="3kiEmL95gFEYFu74ZCWC-27" value="" style="shape=partialRectangle;html=1;whiteSpace=wrap;connectable=0;strokeColor=inherit;overflow=hidden;fillColor=none;top=0;left=0;bottom=0;right=0;pointerEvents=1;fontSize=16;" vertex="1" parent="3kiEmL95gFEYFu74ZCWC-24">
          <mxGeometry x="494" width="246" height="44" as="geometry">
            <mxRectangle width="246" height="44" as="alternateBounds" />
          </mxGeometry>
        </mxCell>
        <mxCell id="3kiEmL95gFEYFu74ZCWC-28" value="" style="shape=tableRow;horizontal=0;startSize=0;swimlaneHead=0;swimlaneBody=0;strokeColor=inherit;top=0;left=0;bottom=0;right=0;collapsible=0;dropTarget=0;fillColor=none;points=[[0,0.5],[1,0.5]];portConstraint=eastwest;fontSize=16;" vertex="1" parent="3kiEmL95gFEYFu74ZCWC-19">
          <mxGeometry y="117" width="740" height="43" as="geometry" />
        </mxCell>
        <mxCell id="3kiEmL95gFEYFu74ZCWC-29" value="" style="shape=partialRectangle;html=1;whiteSpace=wrap;connectable=0;strokeColor=inherit;overflow=hidden;fillColor=none;top=0;left=0;bottom=0;right=0;pointerEvents=1;fontSize=16;" vertex="1" parent="3kiEmL95gFEYFu74ZCWC-28">
          <mxGeometry width="246" height="43" as="geometry">
            <mxRectangle width="246" height="43" as="alternateBounds" />
          </mxGeometry>
        </mxCell>
        <mxCell id="3kiEmL95gFEYFu74ZCWC-30" value="" style="shape=partialRectangle;html=1;whiteSpace=wrap;connectable=0;strokeColor=inherit;overflow=hidden;fillColor=none;top=0;left=0;bottom=0;right=0;pointerEvents=1;fontSize=16;" vertex="1" parent="3kiEmL95gFEYFu74ZCWC-28">
          <mxGeometry x="246" width="248" height="43" as="geometry">
            <mxRectangle width="248" height="43" as="alternateBounds" />
          </mxGeometry>
        </mxCell>
        <mxCell id="3kiEmL95gFEYFu74ZCWC-31" value="" style="shape=partialRectangle;html=1;whiteSpace=wrap;connectable=0;strokeColor=inherit;overflow=hidden;fillColor=none;top=0;left=0;bottom=0;right=0;pointerEvents=1;fontSize=16;" vertex="1" parent="3kiEmL95gFEYFu74ZCWC-28">
          <mxGeometry x="494" width="246" height="43" as="geometry">
            <mxRectangle width="246" height="43" as="alternateBounds" />
          </mxGeometry>
        </mxCell>
        <mxCell id="3kiEmL95gFEYFu74ZCWC-32" value="Table" style="shape=table;startSize=30;container=1;collapsible=0;childLayout=tableLayout;strokeColor=default;fontSize=16;" vertex="1" parent="1">
          <mxGeometry x="190" y="1850" width="740" height="160" as="geometry" />
        </mxCell>
        <mxCell id="3kiEmL95gFEYFu74ZCWC-33" value="" style="shape=tableRow;horizontal=0;startSize=0;swimlaneHead=0;swimlaneBody=0;strokeColor=inherit;top=0;left=0;bottom=0;right=0;collapsible=0;dropTarget=0;fillColor=none;points=[[0,0.5],[1,0.5]];portConstraint=eastwest;fontSize=16;" vertex="1" parent="3kiEmL95gFEYFu74ZCWC-32">
          <mxGeometry y="30" width="740" height="43" as="geometry" />
        </mxCell>
        <mxCell id="3kiEmL95gFEYFu74ZCWC-34" value="" style="shape=partialRectangle;html=1;whiteSpace=wrap;connectable=0;strokeColor=inherit;overflow=hidden;fillColor=none;top=0;left=0;bottom=0;right=0;pointerEvents=1;fontSize=16;" vertex="1" parent="3kiEmL95gFEYFu74ZCWC-33">
          <mxGeometry width="246" height="43" as="geometry">
            <mxRectangle width="246" height="43" as="alternateBounds" />
          </mxGeometry>
        </mxCell>
        <mxCell id="3kiEmL95gFEYFu74ZCWC-35" value="" style="shape=partialRectangle;html=1;whiteSpace=wrap;connectable=0;strokeColor=inherit;overflow=hidden;fillColor=none;top=0;left=0;bottom=0;right=0;pointerEvents=1;fontSize=16;" vertex="1" parent="3kiEmL95gFEYFu74ZCWC-33">
          <mxGeometry x="246" width="248" height="43" as="geometry">
            <mxRectangle width="248" height="43" as="alternateBounds" />
          </mxGeometry>
        </mxCell>
        <mxCell id="3kiEmL95gFEYFu74ZCWC-36" value="" style="shape=partialRectangle;html=1;whiteSpace=wrap;connectable=0;strokeColor=inherit;overflow=hidden;fillColor=none;top=0;left=0;bottom=0;right=0;pointerEvents=1;fontSize=16;" vertex="1" parent="3kiEmL95gFEYFu74ZCWC-33">
          <mxGeometry x="494" width="246" height="43" as="geometry">
            <mxRectangle width="246" height="43" as="alternateBounds" />
          </mxGeometry>
        </mxCell>
        <mxCell id="3kiEmL95gFEYFu74ZCWC-37" value="" style="shape=tableRow;horizontal=0;startSize=0;swimlaneHead=0;swimlaneBody=0;strokeColor=inherit;top=0;left=0;bottom=0;right=0;collapsible=0;dropTarget=0;fillColor=none;points=[[0,0.5],[1,0.5]];portConstraint=eastwest;fontSize=16;" vertex="1" parent="3kiEmL95gFEYFu74ZCWC-32">
          <mxGeometry y="73" width="740" height="44" as="geometry" />
        </mxCell>
        <mxCell id="3kiEmL95gFEYFu74ZCWC-38" value="" style="shape=partialRectangle;html=1;whiteSpace=wrap;connectable=0;strokeColor=inherit;overflow=hidden;fillColor=none;top=0;left=0;bottom=0;right=0;pointerEvents=1;fontSize=16;" vertex="1" parent="3kiEmL95gFEYFu74ZCWC-37">
          <mxGeometry width="246" height="44" as="geometry">
            <mxRectangle width="246" height="44" as="alternateBounds" />
          </mxGeometry>
        </mxCell>
        <mxCell id="3kiEmL95gFEYFu74ZCWC-39" value="" style="shape=partialRectangle;html=1;whiteSpace=wrap;connectable=0;strokeColor=inherit;overflow=hidden;fillColor=none;top=0;left=0;bottom=0;right=0;pointerEvents=1;fontSize=16;" vertex="1" parent="3kiEmL95gFEYFu74ZCWC-37">
          <mxGeometry x="246" width="248" height="44" as="geometry">
            <mxRectangle width="248" height="44" as="alternateBounds" />
          </mxGeometry>
        </mxCell>
        <mxCell id="3kiEmL95gFEYFu74ZCWC-40" value="" style="shape=partialRectangle;html=1;whiteSpace=wrap;connectable=0;strokeColor=inherit;overflow=hidden;fillColor=none;top=0;left=0;bottom=0;right=0;pointerEvents=1;fontSize=16;" vertex="1" parent="3kiEmL95gFEYFu74ZCWC-37">
          <mxGeometry x="494" width="246" height="44" as="geometry">
            <mxRectangle width="246" height="44" as="alternateBounds" />
          </mxGeometry>
        </mxCell>
        <mxCell id="3kiEmL95gFEYFu74ZCWC-41" value="" style="shape=tableRow;horizontal=0;startSize=0;swimlaneHead=0;swimlaneBody=0;strokeColor=inherit;top=0;left=0;bottom=0;right=0;collapsible=0;dropTarget=0;fillColor=none;points=[[0,0.5],[1,0.5]];portConstraint=eastwest;fontSize=16;" vertex="1" parent="3kiEmL95gFEYFu74ZCWC-32">
          <mxGeometry y="117" width="740" height="43" as="geometry" />
        </mxCell>
        <mxCell id="3kiEmL95gFEYFu74ZCWC-42" value="" style="shape=partialRectangle;html=1;whiteSpace=wrap;connectable=0;strokeColor=inherit;overflow=hidden;fillColor=none;top=0;left=0;bottom=0;right=0;pointerEvents=1;fontSize=16;" vertex="1" parent="3kiEmL95gFEYFu74ZCWC-41">
          <mxGeometry width="246" height="43" as="geometry">
            <mxRectangle width="246" height="43" as="alternateBounds" />
          </mxGeometry>
        </mxCell>
        <mxCell id="3kiEmL95gFEYFu74ZCWC-43" value="" style="shape=partialRectangle;html=1;whiteSpace=wrap;connectable=0;strokeColor=inherit;overflow=hidden;fillColor=none;top=0;left=0;bottom=0;right=0;pointerEvents=1;fontSize=16;" vertex="1" parent="3kiEmL95gFEYFu74ZCWC-41">
          <mxGeometry x="246" width="248" height="43" as="geometry">
            <mxRectangle width="248" height="43" as="alternateBounds" />
          </mxGeometry>
        </mxCell>
        <mxCell id="3kiEmL95gFEYFu74ZCWC-44" value="" style="shape=partialRectangle;html=1;whiteSpace=wrap;connectable=0;strokeColor=inherit;overflow=hidden;fillColor=none;top=0;left=0;bottom=0;right=0;pointerEvents=1;fontSize=16;" vertex="1" parent="3kiEmL95gFEYFu74ZCWC-41">
          <mxGeometry x="494" width="246" height="43" as="geometry">
            <mxRectangle width="246" height="43" as="alternateBounds" />
          </mxGeometry>
        </mxCell>
        <mxCell id="3kiEmL95gFEYFu74ZCWC-45" value="Table" style="shape=table;startSize=30;container=1;collapsible=0;childLayout=tableLayout;strokeColor=default;fontSize=16;" vertex="1" parent="1">
          <mxGeometry x="190" y="2090" width="740" height="160" as="geometry" />
        </mxCell>
        <mxCell id="3kiEmL95gFEYFu74ZCWC-46" value="" style="shape=tableRow;horizontal=0;startSize=0;swimlaneHead=0;swimlaneBody=0;strokeColor=inherit;top=0;left=0;bottom=0;right=0;collapsible=0;dropTarget=0;fillColor=none;points=[[0,0.5],[1,0.5]];portConstraint=eastwest;fontSize=16;" vertex="1" parent="3kiEmL95gFEYFu74ZCWC-45">
          <mxGeometry y="30" width="740" height="43" as="geometry" />
        </mxCell>
        <mxCell id="3kiEmL95gFEYFu74ZCWC-47" value="" style="shape=partialRectangle;html=1;whiteSpace=wrap;connectable=0;strokeColor=inherit;overflow=hidden;fillColor=none;top=0;left=0;bottom=0;right=0;pointerEvents=1;fontSize=16;" vertex="1" parent="3kiEmL95gFEYFu74ZCWC-46">
          <mxGeometry width="246" height="43" as="geometry">
            <mxRectangle width="246" height="43" as="alternateBounds" />
          </mxGeometry>
        </mxCell>
        <mxCell id="3kiEmL95gFEYFu74ZCWC-48" value="" style="shape=partialRectangle;html=1;whiteSpace=wrap;connectable=0;strokeColor=inherit;overflow=hidden;fillColor=none;top=0;left=0;bottom=0;right=0;pointerEvents=1;fontSize=16;" vertex="1" parent="3kiEmL95gFEYFu74ZCWC-46">
          <mxGeometry x="246" width="248" height="43" as="geometry">
            <mxRectangle width="248" height="43" as="alternateBounds" />
          </mxGeometry>
        </mxCell>
        <mxCell id="3kiEmL95gFEYFu74ZCWC-49" value="" style="shape=partialRectangle;html=1;whiteSpace=wrap;connectable=0;strokeColor=inherit;overflow=hidden;fillColor=none;top=0;left=0;bottom=0;right=0;pointerEvents=1;fontSize=16;" vertex="1" parent="3kiEmL95gFEYFu74ZCWC-46">
          <mxGeometry x="494" width="246" height="43" as="geometry">
            <mxRectangle width="246" height="43" as="alternateBounds" />
          </mxGeometry>
        </mxCell>
        <mxCell id="3kiEmL95gFEYFu74ZCWC-50" value="" style="shape=tableRow;horizontal=0;startSize=0;swimlaneHead=0;swimlaneBody=0;strokeColor=inherit;top=0;left=0;bottom=0;right=0;collapsible=0;dropTarget=0;fillColor=none;points=[[0,0.5],[1,0.5]];portConstraint=eastwest;fontSize=16;" vertex="1" parent="3kiEmL95gFEYFu74ZCWC-45">
          <mxGeometry y="73" width="740" height="44" as="geometry" />
        </mxCell>
        <mxCell id="3kiEmL95gFEYFu74ZCWC-51" value="" style="shape=partialRectangle;html=1;whiteSpace=wrap;connectable=0;strokeColor=inherit;overflow=hidden;fillColor=none;top=0;left=0;bottom=0;right=0;pointerEvents=1;fontSize=16;" vertex="1" parent="3kiEmL95gFEYFu74ZCWC-50">
          <mxGeometry width="246" height="44" as="geometry">
            <mxRectangle width="246" height="44" as="alternateBounds" />
          </mxGeometry>
        </mxCell>
        <mxCell id="3kiEmL95gFEYFu74ZCWC-52" value="" style="shape=partialRectangle;html=1;whiteSpace=wrap;connectable=0;strokeColor=inherit;overflow=hidden;fillColor=none;top=0;left=0;bottom=0;right=0;pointerEvents=1;fontSize=16;" vertex="1" parent="3kiEmL95gFEYFu74ZCWC-50">
          <mxGeometry x="246" width="248" height="44" as="geometry">
            <mxRectangle width="248" height="44" as="alternateBounds" />
          </mxGeometry>
        </mxCell>
        <mxCell id="3kiEmL95gFEYFu74ZCWC-53" value="" style="shape=partialRectangle;html=1;whiteSpace=wrap;connectable=0;strokeColor=inherit;overflow=hidden;fillColor=none;top=0;left=0;bottom=0;right=0;pointerEvents=1;fontSize=16;" vertex="1" parent="3kiEmL95gFEYFu74ZCWC-50">
          <mxGeometry x="494" width="246" height="44" as="geometry">
            <mxRectangle width="246" height="44" as="alternateBounds" />
          </mxGeometry>
        </mxCell>
        <mxCell id="3kiEmL95gFEYFu74ZCWC-54" value="" style="shape=tableRow;horizontal=0;startSize=0;swimlaneHead=0;swimlaneBody=0;strokeColor=inherit;top=0;left=0;bottom=0;right=0;collapsible=0;dropTarget=0;fillColor=none;points=[[0,0.5],[1,0.5]];portConstraint=eastwest;fontSize=16;" vertex="1" parent="3kiEmL95gFEYFu74ZCWC-45">
          <mxGeometry y="117" width="740" height="43" as="geometry" />
        </mxCell>
        <mxCell id="3kiEmL95gFEYFu74ZCWC-55" value="" style="shape=partialRectangle;html=1;whiteSpace=wrap;connectable=0;strokeColor=inherit;overflow=hidden;fillColor=none;top=0;left=0;bottom=0;right=0;pointerEvents=1;fontSize=16;" vertex="1" parent="3kiEmL95gFEYFu74ZCWC-54">
          <mxGeometry width="246" height="43" as="geometry">
            <mxRectangle width="246" height="43" as="alternateBounds" />
          </mxGeometry>
        </mxCell>
        <mxCell id="3kiEmL95gFEYFu74ZCWC-56" value="" style="shape=partialRectangle;html=1;whiteSpace=wrap;connectable=0;strokeColor=inherit;overflow=hidden;fillColor=none;top=0;left=0;bottom=0;right=0;pointerEvents=1;fontSize=16;" vertex="1" parent="3kiEmL95gFEYFu74ZCWC-54">
          <mxGeometry x="246" width="248" height="43" as="geometry">
            <mxRectangle width="248" height="43" as="alternateBounds" />
          </mxGeometry>
        </mxCell>
        <mxCell id="3kiEmL95gFEYFu74ZCWC-57" value="" style="shape=partialRectangle;html=1;whiteSpace=wrap;connectable=0;strokeColor=inherit;overflow=hidden;fillColor=none;top=0;left=0;bottom=0;right=0;pointerEvents=1;fontSize=16;" vertex="1" parent="3kiEmL95gFEYFu74ZCWC-54">
          <mxGeometry x="494" width="246" height="43" as="geometry">
            <mxRectangle width="246" height="43" as="alternateBounds" />
          </mxGeometry>
        </mxCell>
        <mxCell id="3kiEmL95gFEYFu74ZCWC-58" value="&lt;b&gt;채용안내&lt;/b&gt;" style="text;html=1;align=center;verticalAlign=middle;whiteSpace=wrap;rounded=0;" vertex="1" parent="1">
          <mxGeometry x="200" y="1580" width="60" height="30" as="geometry" />
        </mxCell>
        <mxCell id="3kiEmL95gFEYFu74ZCWC-59" value="채용부분 상세정보" style="text;html=1;align=center;verticalAlign=middle;whiteSpace=wrap;rounded=0;" vertex="1" parent="1">
          <mxGeometry x="200" y="1810" width="130" height="30" as="geometry" />
        </mxCell>
        <mxCell id="3kiEmL95gFEYFu74ZCWC-60" value="채용 절차" style="text;html=1;align=center;verticalAlign=middle;whiteSpace=wrap;rounded=0;" vertex="1" parent="1">
          <mxGeometry x="200" y="2050" width="130" height="30" as="geometry" />
        </mxCell>
      </root>
    </mxGraphModel>
  </diagram>
  <diagram id="ZVZ627Mj_1EAf32xD05y" name="COMPANY_공지사항">
    <mxGraphModel dx="1615" dy="869" grid="1" gridSize="10" guides="1" tooltips="1" connect="1" arrows="1" fold="1" page="1" pageScale="1" pageWidth="827" pageHeight="1169" math="0" shadow="0">
      <root>
        <mxCell id="0" />
        <mxCell id="1" parent="0" />
        <mxCell id="h6_xlLk_mfzJg8PZXupR-1" value="" style="whiteSpace=wrap;html=1;rounded=0;shadow=0;labelBackgroundColor=none;strokeColor=#000000;strokeWidth=1;fillColor=none;fontFamily=Verdana;fontSize=12;fontColor=#000000;align=center;comic=1;" parent="1" vertex="1">
          <mxGeometry x="20" y="30" width="1060" height="750" as="geometry" />
        </mxCell>
        <mxCell id="h6_xlLk_mfzJg8PZXupR-2" value="" style="verticalLabelPosition=bottom;shadow=0;dashed=0;align=center;html=1;verticalAlign=top;strokeWidth=1;shape=mxgraph.mockup.graphics.simpleIcon;strokeColor=#999999;rounded=0;labelBackgroundColor=none;fontFamily=Verdana;fontSize=14;fontColor=#000000;comic=1;" parent="1" vertex="1">
          <mxGeometry x="20" y="20" width="1060" height="320" as="geometry" />
        </mxCell>
        <mxCell id="h6_xlLk_mfzJg8PZXupR-3" value="LOGO" style="whiteSpace=wrap;html=1;rounded=0;shadow=0;labelBackgroundColor=none;strokeWidth=1;fontFamily=Verdana;fontSize=28;align=center;comic=1;" parent="1" vertex="1">
          <mxGeometry x="40" y="40" width="190" height="50" as="geometry" />
        </mxCell>
        <mxCell id="h6_xlLk_mfzJg8PZXupR-4" value="&lt;font style=&quot;font-size: 20px;&quot;&gt;COMPANY&lt;/font&gt;" style="text;html=1;points=[];align=center;verticalAlign=middle;spacingTop=-4;fontSize=14;fontFamily=Verdana" parent="1" vertex="1">
          <mxGeometry x="520" y="50" width="130" height="43.33" as="geometry" />
        </mxCell>
        <mxCell id="h6_xlLk_mfzJg8PZXupR-5" value="&lt;font style=&quot;font-size: 20px;&quot;&gt;BUSINESS&lt;/font&gt;" style="text;html=1;points=[];align=center;verticalAlign=middle;spacingTop=-4;fontSize=14;fontFamily=Verdana" parent="1" vertex="1">
          <mxGeometry x="650" y="50" width="130" height="43.33" as="geometry" />
        </mxCell>
        <mxCell id="h6_xlLk_mfzJg8PZXupR-6" value="&lt;font style=&quot;font-size: 20px;&quot;&gt;PROJECT&lt;/font&gt;" style="text;html=1;points=[];align=center;verticalAlign=middle;spacingTop=-4;fontSize=14;fontFamily=Verdana" parent="1" vertex="1">
          <mxGeometry x="780" y="50" width="130" height="43.33" as="geometry" />
        </mxCell>
        <mxCell id="h6_xlLk_mfzJg8PZXupR-7" value="&lt;font style=&quot;font-size: 20px;&quot;&gt;CONTACT&lt;/font&gt;" style="text;html=1;points=[];align=center;verticalAlign=middle;spacingTop=-4;fontSize=14;fontFamily=Verdana" parent="1" vertex="1">
          <mxGeometry x="910" y="50" width="130" height="43.33" as="geometry" />
        </mxCell>
        <mxCell id="h6_xlLk_mfzJg8PZXupR-11" value="" style="rounded=0;whiteSpace=wrap;html=1;" parent="1" vertex="1">
          <mxGeometry x="20" y="660" width="1060" height="120" as="geometry" />
        </mxCell>
        <mxCell id="h6_xlLk_mfzJg8PZXupR-12" value="LOGO" style="whiteSpace=wrap;html=1;rounded=0;shadow=0;labelBackgroundColor=none;strokeWidth=1;fontFamily=Verdana;fontSize=28;align=center;comic=1;" parent="1" vertex="1">
          <mxGeometry x="200" y="705" width="130" height="30" as="geometry" />
        </mxCell>
        <mxCell id="h6_xlLk_mfzJg8PZXupR-15" value="&lt;span style=&quot;color: rgb(255, 255, 255); font-size: 20px;&quot;&gt;TEXT AREA&lt;/span&gt;" style="rounded=0;whiteSpace=wrap;html=1;fillColor=#000000;" parent="1" vertex="1">
          <mxGeometry x="400" y="682" width="620" height="68" as="geometry" />
        </mxCell>
        <mxCell id="5CIdTF82TUw6sor8a8yK-1" value="&lt;span style=&quot;font-size: 30px;&quot;&gt;&lt;b&gt;COMPANY&lt;/b&gt;&lt;/span&gt;" style="text;html=1;align=center;verticalAlign=middle;whiteSpace=wrap;rounded=0;" parent="1" vertex="1">
          <mxGeometry x="290" y="180" width="520" height="30" as="geometry" />
        </mxCell>
        <mxCell id="MfWEtIznqmIVHPmMeXqy-1" value="Table" style="shape=table;startSize=30;container=1;collapsible=0;childLayout=tableLayout;strokeColor=default;fontSize=16;" parent="1" vertex="1">
          <mxGeometry x="70" y="390" width="960" height="180" as="geometry" />
        </mxCell>
        <mxCell id="MfWEtIznqmIVHPmMeXqy-2" value="" style="shape=tableRow;horizontal=0;startSize=0;swimlaneHead=0;swimlaneBody=0;strokeColor=inherit;top=0;left=0;bottom=0;right=0;collapsible=0;dropTarget=0;fillColor=none;points=[[0,0.5],[1,0.5]];portConstraint=eastwest;fontSize=16;" parent="MfWEtIznqmIVHPmMeXqy-1" vertex="1">
          <mxGeometry y="30" width="960" height="50" as="geometry" />
        </mxCell>
        <mxCell id="MfWEtIznqmIVHPmMeXqy-3" value="" style="shape=partialRectangle;html=1;whiteSpace=wrap;connectable=0;strokeColor=inherit;overflow=hidden;fillColor=none;top=0;left=0;bottom=0;right=0;pointerEvents=1;fontSize=16;" parent="MfWEtIznqmIVHPmMeXqy-2" vertex="1">
          <mxGeometry width="321" height="50" as="geometry">
            <mxRectangle width="321" height="50" as="alternateBounds" />
          </mxGeometry>
        </mxCell>
        <mxCell id="MfWEtIznqmIVHPmMeXqy-4" value="" style="shape=partialRectangle;html=1;whiteSpace=wrap;connectable=0;strokeColor=inherit;overflow=hidden;fillColor=none;top=0;left=0;bottom=0;right=0;pointerEvents=1;fontSize=16;" parent="MfWEtIznqmIVHPmMeXqy-2" vertex="1">
          <mxGeometry x="321" width="318" height="50" as="geometry">
            <mxRectangle width="318" height="50" as="alternateBounds" />
          </mxGeometry>
        </mxCell>
        <mxCell id="MfWEtIznqmIVHPmMeXqy-5" value="" style="shape=partialRectangle;html=1;whiteSpace=wrap;connectable=0;strokeColor=inherit;overflow=hidden;fillColor=none;top=0;left=0;bottom=0;right=0;pointerEvents=1;fontSize=16;" parent="MfWEtIznqmIVHPmMeXqy-2" vertex="1">
          <mxGeometry x="639" width="321" height="50" as="geometry">
            <mxRectangle width="321" height="50" as="alternateBounds" />
          </mxGeometry>
        </mxCell>
        <mxCell id="MfWEtIznqmIVHPmMeXqy-6" value="" style="shape=tableRow;horizontal=0;startSize=0;swimlaneHead=0;swimlaneBody=0;strokeColor=inherit;top=0;left=0;bottom=0;right=0;collapsible=0;dropTarget=0;fillColor=none;points=[[0,0.5],[1,0.5]];portConstraint=eastwest;fontSize=16;" parent="MfWEtIznqmIVHPmMeXqy-1" vertex="1">
          <mxGeometry y="80" width="960" height="50" as="geometry" />
        </mxCell>
        <mxCell id="MfWEtIznqmIVHPmMeXqy-7" value="" style="shape=partialRectangle;html=1;whiteSpace=wrap;connectable=0;strokeColor=inherit;overflow=hidden;fillColor=none;top=0;left=0;bottom=0;right=0;pointerEvents=1;fontSize=16;" parent="MfWEtIznqmIVHPmMeXqy-6" vertex="1">
          <mxGeometry width="321" height="50" as="geometry">
            <mxRectangle width="321" height="50" as="alternateBounds" />
          </mxGeometry>
        </mxCell>
        <mxCell id="MfWEtIznqmIVHPmMeXqy-8" value="" style="shape=partialRectangle;html=1;whiteSpace=wrap;connectable=0;strokeColor=inherit;overflow=hidden;fillColor=none;top=0;left=0;bottom=0;right=0;pointerEvents=1;fontSize=16;" parent="MfWEtIznqmIVHPmMeXqy-6" vertex="1">
          <mxGeometry x="321" width="318" height="50" as="geometry">
            <mxRectangle width="318" height="50" as="alternateBounds" />
          </mxGeometry>
        </mxCell>
        <mxCell id="MfWEtIznqmIVHPmMeXqy-9" value="" style="shape=partialRectangle;html=1;whiteSpace=wrap;connectable=0;strokeColor=inherit;overflow=hidden;fillColor=none;top=0;left=0;bottom=0;right=0;pointerEvents=1;fontSize=16;" parent="MfWEtIznqmIVHPmMeXqy-6" vertex="1">
          <mxGeometry x="639" width="321" height="50" as="geometry">
            <mxRectangle width="321" height="50" as="alternateBounds" />
          </mxGeometry>
        </mxCell>
        <mxCell id="MfWEtIznqmIVHPmMeXqy-10" value="" style="shape=tableRow;horizontal=0;startSize=0;swimlaneHead=0;swimlaneBody=0;strokeColor=inherit;top=0;left=0;bottom=0;right=0;collapsible=0;dropTarget=0;fillColor=none;points=[[0,0.5],[1,0.5]];portConstraint=eastwest;fontSize=16;" parent="MfWEtIznqmIVHPmMeXqy-1" vertex="1">
          <mxGeometry y="130" width="960" height="50" as="geometry" />
        </mxCell>
        <mxCell id="MfWEtIznqmIVHPmMeXqy-11" value="" style="shape=partialRectangle;html=1;whiteSpace=wrap;connectable=0;strokeColor=inherit;overflow=hidden;fillColor=none;top=0;left=0;bottom=0;right=0;pointerEvents=1;fontSize=16;" parent="MfWEtIznqmIVHPmMeXqy-10" vertex="1">
          <mxGeometry width="321" height="50" as="geometry">
            <mxRectangle width="321" height="50" as="alternateBounds" />
          </mxGeometry>
        </mxCell>
        <mxCell id="MfWEtIznqmIVHPmMeXqy-12" value="" style="shape=partialRectangle;html=1;whiteSpace=wrap;connectable=0;strokeColor=inherit;overflow=hidden;fillColor=none;top=0;left=0;bottom=0;right=0;pointerEvents=1;fontSize=16;" parent="MfWEtIznqmIVHPmMeXqy-10" vertex="1">
          <mxGeometry x="321" width="318" height="50" as="geometry">
            <mxRectangle width="318" height="50" as="alternateBounds" />
          </mxGeometry>
        </mxCell>
        <mxCell id="MfWEtIznqmIVHPmMeXqy-13" value="" style="shape=partialRectangle;html=1;whiteSpace=wrap;connectable=0;strokeColor=inherit;overflow=hidden;fillColor=none;top=0;left=0;bottom=0;right=0;pointerEvents=1;fontSize=16;" parent="MfWEtIznqmIVHPmMeXqy-10" vertex="1">
          <mxGeometry x="639" width="321" height="50" as="geometry">
            <mxRectangle width="321" height="50" as="alternateBounds" />
          </mxGeometry>
        </mxCell>
        <mxCell id="5CgV-2kwyRyyJ83x18Z7-1" value="" style="group" parent="1" vertex="1" connectable="0">
          <mxGeometry x="870" y="584" width="156.52999999999997" height="17.5" as="geometry" />
        </mxCell>
        <mxCell id="5CgV-2kwyRyyJ83x18Z7-2" value="&lt;font style=&quot;font-size: 10px;&quot;&gt;글쓰기&lt;/font&gt;" style="rounded=0;whiteSpace=wrap;html=1;" parent="5CgV-2kwyRyyJ83x18Z7-1" vertex="1">
          <mxGeometry width="48" height="17.5" as="geometry" />
        </mxCell>
        <mxCell id="5CgV-2kwyRyyJ83x18Z7-3" value="&lt;span style=&quot;font-size: 10px;&quot;&gt;삭제&lt;/span&gt;" style="rounded=0;whiteSpace=wrap;html=1;" parent="5CgV-2kwyRyyJ83x18Z7-1" vertex="1">
          <mxGeometry x="108.52999999999997" width="48" height="17.5" as="geometry" />
        </mxCell>
        <mxCell id="5CgV-2kwyRyyJ83x18Z7-4" value="&lt;font style=&quot;font-size: 10px;&quot;&gt;수정&lt;/font&gt;" style="rounded=0;whiteSpace=wrap;html=1;" parent="5CgV-2kwyRyyJ83x18Z7-1" vertex="1">
          <mxGeometry x="54.52999999999997" width="48" height="17.5" as="geometry" />
        </mxCell>
        <mxCell id="5CgV-2kwyRyyJ83x18Z7-6" value="" style="group" parent="1" vertex="1" connectable="0">
          <mxGeometry x="430" y="615" width="240" height="30" as="geometry" />
        </mxCell>
        <mxCell id="MfWEtIznqmIVHPmMeXqy-14" value="1" style="ellipse;whiteSpace=wrap;html=1;aspect=fixed;" parent="5CgV-2kwyRyyJ83x18Z7-6" vertex="1">
          <mxGeometry x="105" width="30" height="30" as="geometry" />
        </mxCell>
        <mxCell id="MfWEtIznqmIVHPmMeXqy-15" value="&amp;lt;" style="ellipse;whiteSpace=wrap;html=1;aspect=fixed;" parent="5CgV-2kwyRyyJ83x18Z7-6" vertex="1">
          <mxGeometry x="50" width="30" height="30" as="geometry" />
        </mxCell>
        <mxCell id="MfWEtIznqmIVHPmMeXqy-16" value="&amp;gt;" style="ellipse;whiteSpace=wrap;html=1;aspect=fixed;" parent="5CgV-2kwyRyyJ83x18Z7-6" vertex="1">
          <mxGeometry x="160" width="30" height="30" as="geometry" />
        </mxCell>
        <mxCell id="MfWEtIznqmIVHPmMeXqy-17" value="&amp;lt;&amp;lt;" style="ellipse;whiteSpace=wrap;html=1;aspect=fixed;" parent="5CgV-2kwyRyyJ83x18Z7-6" vertex="1">
          <mxGeometry width="30" height="30" as="geometry" />
        </mxCell>
        <mxCell id="MfWEtIznqmIVHPmMeXqy-18" value="&amp;gt;&amp;gt;" style="ellipse;whiteSpace=wrap;html=1;aspect=fixed;" parent="5CgV-2kwyRyyJ83x18Z7-6" vertex="1">
          <mxGeometry x="210" width="30" height="30" as="geometry" />
        </mxCell>
        <mxCell id="5CgV-2kwyRyyJ83x18Z7-7" value="" style="rounded=0;whiteSpace=wrap;html=1;align=left;movable=1;resizable=1;rotatable=1;deletable=1;editable=1;locked=0;connectable=1;container=0;" parent="1" vertex="1">
          <mxGeometry x="1140" y="710" width="600" height="70" as="geometry" />
        </mxCell>
        <mxCell id="5CgV-2kwyRyyJ83x18Z7-8" value="" style="group" parent="1" vertex="1" connectable="0">
          <mxGeometry x="1570" y="730" width="156.52999999999997" height="17.5" as="geometry" />
        </mxCell>
        <mxCell id="5CgV-2kwyRyyJ83x18Z7-9" value="&lt;font style=&quot;font-size: 10px;&quot;&gt;저장&lt;/font&gt;" style="rounded=0;whiteSpace=wrap;html=1;" parent="5CgV-2kwyRyyJ83x18Z7-8" vertex="1">
          <mxGeometry width="48" height="17.5" as="geometry" />
        </mxCell>
        <mxCell id="5CgV-2kwyRyyJ83x18Z7-10" value="&lt;span style=&quot;font-size: 10px;&quot;&gt;취소&lt;/span&gt;" style="rounded=0;whiteSpace=wrap;html=1;" parent="5CgV-2kwyRyyJ83x18Z7-8" vertex="1">
          <mxGeometry x="108.52999999999997" width="48" height="17.5" as="geometry" />
        </mxCell>
        <mxCell id="5CgV-2kwyRyyJ83x18Z7-11" value="&lt;font style=&quot;font-size: 10px;&quot;&gt;수정&lt;/font&gt;" style="rounded=0;whiteSpace=wrap;html=1;" parent="5CgV-2kwyRyyJ83x18Z7-8" vertex="1">
          <mxGeometry x="54.52999999999997" width="48" height="17.5" as="geometry" />
        </mxCell>
        <mxCell id="5CgV-2kwyRyyJ83x18Z7-12" value="&lt;span style=&quot;white-space: pre;&quot;&gt;&#x9;&lt;/span&gt;&lt;font style=&quot;font-size: 15px;&quot;&gt;&lt;b&gt;공지사항&lt;/b&gt;&lt;/font&gt;" style="rounded=0;whiteSpace=wrap;html=1;align=left;movable=1;resizable=1;rotatable=1;deletable=1;editable=1;locked=0;connectable=1;container=0;labelBackgroundColor=none;labelBorderColor=none;" parent="1" vertex="1">
          <mxGeometry x="1140" y="359" width="600" height="70" as="geometry" />
        </mxCell>
        <mxCell id="5CgV-2kwyRyyJ83x18Z7-13" value="&amp;nbsp; &amp;nbsp; &amp;nbsp; &amp;nbsp;생성날짜&amp;nbsp;" style="rounded=0;whiteSpace=wrap;html=1;align=left;movable=1;resizable=1;rotatable=1;deletable=1;editable=1;locked=0;connectable=1;container=0;" parent="1" vertex="1">
          <mxGeometry x="1140" y="479" width="600" height="50" as="geometry" />
        </mxCell>
        <mxCell id="5CgV-2kwyRyyJ83x18Z7-16" value="&lt;span style=&quot;white-space: pre;&quot;&gt;&#x9;&lt;/span&gt;공지사항" style="rounded=0;whiteSpace=wrap;html=1;align=left;movable=1;resizable=1;rotatable=1;deletable=1;editable=1;locked=0;connectable=1;container=0;" parent="1" vertex="1">
          <mxGeometry x="1140" y="530" width="600" height="180" as="geometry" />
        </mxCell>
        <mxCell id="5CgV-2kwyRyyJ83x18Z7-17" value="&lt;span style=&quot;white-space: pre;&quot;&gt;&#x9;&lt;/span&gt;제목" style="rounded=0;whiteSpace=wrap;html=1;align=left;movable=1;resizable=1;rotatable=1;deletable=1;editable=1;locked=0;connectable=1;container=0;" parent="1" vertex="1">
          <mxGeometry x="1140" y="429" width="600" height="50" as="geometry" />
        </mxCell>
        <mxCell id="5CgV-2kwyRyyJ83x18Z7-18" value="" style="rounded=0;whiteSpace=wrap;html=1;" parent="1" vertex="1">
          <mxGeometry x="1250" y="439" width="485" height="30" as="geometry" />
        </mxCell>
        <mxCell id="5CgV-2kwyRyyJ83x18Z7-19" value="" style="line;strokeWidth=1;direction=south;html=1;perimeter=backbonePerimeter;points=[];outlineConnect=0;" parent="1" vertex="1">
          <mxGeometry x="1240" y="429" width="10" height="276" as="geometry" />
        </mxCell>
        <mxCell id="5CgV-2kwyRyyJ83x18Z7-20" value="" style="rounded=0;whiteSpace=wrap;html=1;" parent="1" vertex="1">
          <mxGeometry x="1250" y="540" width="485" height="160" as="geometry" />
        </mxCell>
        <mxCell id="5CgV-2kwyRyyJ83x18Z7-24" value="" style="group" parent="1" vertex="1" connectable="0">
          <mxGeometry x="1252" y="492" width="260" height="220" as="geometry" />
        </mxCell>
        <mxCell id="5CgV-2kwyRyyJ83x18Z7-26" value="" style="group" parent="5CgV-2kwyRyyJ83x18Z7-24" vertex="1" connectable="0">
          <mxGeometry y="10.476190476190476" width="232.73113708820392" height="209.52380952380955" as="geometry" />
        </mxCell>
        <mxCell id="5CgV-2kwyRyyJ83x18Z7-27" value="시작일" style="rounded=1;arcSize=9;fillColor=#ffffff;align=left;spacingLeft=5;strokeColor=#0057D8;html=1;strokeWidth=2;fontColor=#253858;fontSize=12" parent="5CgV-2kwyRyyJ83x18Z7-26" vertex="1">
          <mxGeometry y="-8.380952380952381" width="109.096705632306" height="28.201904761904764" as="geometry" />
        </mxCell>
        <mxCell id="5CgV-2kwyRyyJ83x18Z7-28" value="" style="shape=mxgraph.gmdl.calendar;fillColor=#253858;strokeColor=none" parent="5CgV-2kwyRyyJ83x18Z7-27" vertex="1">
          <mxGeometry x="1" y="0.5" width="18" height="18" relative="1" as="geometry">
            <mxPoint x="-29" y="-9" as="offset" />
          </mxGeometry>
        </mxCell>
        <mxCell id="5CgV-2kwyRyyJ83x18Z7-29" value="" style="shape=mxgraph.mockup.forms.rrect;rSize=5;strokeColor=#DFE1E5;fillColor=#ffffff;shadow=1" parent="5CgV-2kwyRyyJ83x18Z7-26" vertex="1">
          <mxGeometry y="21.489621489621488" width="232.73113708820395" height="188.03418803418805" as="geometry" />
        </mxCell>
        <mxCell id="5CgV-2kwyRyyJ83x18Z7-30" value="November 2015" style="strokeColor=none;fillColor=none;fontColor=#253858;fontSize=16;fontStyle=1" parent="5CgV-2kwyRyyJ83x18Z7-29" vertex="1">
          <mxGeometry x="43.637088204038236" y="8.595848595848596" width="145.45696068012745" height="21.4896214896215" as="geometry" />
        </mxCell>
        <mxCell id="5CgV-2kwyRyyJ83x18Z7-31" value="&lt;" style="strokeColor=none;fillColor=none;fontColor=#253858;fontSize=19;fontStyle=1;" parent="5CgV-2kwyRyyJ83x18Z7-29" vertex="1">
          <mxGeometry x="11.636556854410195" y="8.595848595848596" width="36.36424017003186" height="21.4896214896215" as="geometry" />
        </mxCell>
        <mxCell id="5CgV-2kwyRyyJ83x18Z7-33" value="SUN" style="strokeColor=none;fillColor=none;fontColor=#999999;fontSize=12;fontStyle=1" parent="5CgV-2kwyRyyJ83x18Z7-29" vertex="1">
          <mxGeometry x="14.545696068012747" y="30.08547008547009" width="29.091392136025494" height="21.4896214896215" as="geometry" />
        </mxCell>
        <mxCell id="5CgV-2kwyRyyJ83x18Z7-34" value="MON" style="strokeColor=none;fillColor=none;fontColor=#999999;fontSize=12;fontStyle=1" parent="5CgV-2kwyRyyJ83x18Z7-29" vertex="1">
          <mxGeometry x="43.637088204038236" y="30.08547008547009" width="29.091392136025494" height="21.4896214896215" as="geometry" />
        </mxCell>
        <mxCell id="5CgV-2kwyRyyJ83x18Z7-35" value="TUE" style="strokeColor=none;fillColor=none;fontColor=#999999;fontSize=12;fontStyle=1" parent="5CgV-2kwyRyyJ83x18Z7-29" vertex="1">
          <mxGeometry x="72.72848034006373" y="30.08547008547009" width="29.091392136025494" height="21.4896214896215" as="geometry" />
        </mxCell>
        <mxCell id="5CgV-2kwyRyyJ83x18Z7-36" value="WED" style="strokeColor=none;fillColor=none;fontColor=#999999;fontSize=12;fontStyle=1" parent="5CgV-2kwyRyyJ83x18Z7-29" vertex="1">
          <mxGeometry x="101.81987247608923" y="30.08547008547009" width="29.091392136025494" height="21.4896214896215" as="geometry" />
        </mxCell>
        <mxCell id="5CgV-2kwyRyyJ83x18Z7-37" value="THU" style="strokeColor=none;fillColor=none;fontColor=#999999;fontSize=12;fontStyle=1" parent="5CgV-2kwyRyyJ83x18Z7-29" vertex="1">
          <mxGeometry x="130.9112646121147" y="30.08547008547009" width="29.091392136025494" height="21.4896214896215" as="geometry" />
        </mxCell>
        <mxCell id="5CgV-2kwyRyyJ83x18Z7-38" value="FRI" style="strokeColor=none;fillColor=none;fontColor=#999999;fontSize=12;fontStyle=1" parent="5CgV-2kwyRyyJ83x18Z7-29" vertex="1">
          <mxGeometry x="160.0026567481402" y="30.08547008547009" width="29.091392136025494" height="21.4896214896215" as="geometry" />
        </mxCell>
        <mxCell id="5CgV-2kwyRyyJ83x18Z7-39" value="SAT" style="strokeColor=none;fillColor=none;fontColor=#999999;fontSize=12;fontStyle=1" parent="5CgV-2kwyRyyJ83x18Z7-29" vertex="1">
          <mxGeometry x="189.09404888416572" y="30.08547008547009" width="29.091392136025494" height="21.4896214896215" as="geometry" />
        </mxCell>
        <mxCell id="5CgV-2kwyRyyJ83x18Z7-40" value="31" style="strokeColor=none;fillColor=none;fontColor=#999999;fontSize=16" parent="5CgV-2kwyRyyJ83x18Z7-29" vertex="1">
          <mxGeometry x="14.545696068012747" y="51.575091575091584" width="29.091392136025494" height="21.4896214896215" as="geometry" />
        </mxCell>
        <mxCell id="5CgV-2kwyRyyJ83x18Z7-41" value="1" style="strokeColor=none;fillColor=none;fontColor=#000000;fontSize=16" parent="5CgV-2kwyRyyJ83x18Z7-29" vertex="1">
          <mxGeometry x="43.637088204038236" y="51.575091575091584" width="29.091392136025494" height="21.4896214896215" as="geometry" />
        </mxCell>
        <mxCell id="5CgV-2kwyRyyJ83x18Z7-42" value="2" style="strokeColor=none;fillColor=none;fontColor=#000000;fontSize=16" parent="5CgV-2kwyRyyJ83x18Z7-29" vertex="1">
          <mxGeometry x="72.72848034006373" y="51.575091575091584" width="29.091392136025494" height="21.4896214896215" as="geometry" />
        </mxCell>
        <mxCell id="5CgV-2kwyRyyJ83x18Z7-43" value="3" style="strokeColor=none;fillColor=none;fontColor=#000000;fontSize=16" parent="5CgV-2kwyRyyJ83x18Z7-29" vertex="1">
          <mxGeometry x="101.81987247608923" y="51.575091575091584" width="29.091392136025494" height="21.4896214896215" as="geometry" />
        </mxCell>
        <mxCell id="5CgV-2kwyRyyJ83x18Z7-44" value="4" style="strokeColor=none;fillColor=none;fontColor=#000000;fontSize=16" parent="5CgV-2kwyRyyJ83x18Z7-29" vertex="1">
          <mxGeometry x="130.9112646121147" y="51.575091575091584" width="29.091392136025494" height="21.4896214896215" as="geometry" />
        </mxCell>
        <mxCell id="5CgV-2kwyRyyJ83x18Z7-45" value="5" style="strokeColor=none;fillColor=none;fontColor=#000000;fontSize=16" parent="5CgV-2kwyRyyJ83x18Z7-29" vertex="1">
          <mxGeometry x="160.0026567481402" y="51.575091575091584" width="29.091392136025494" height="21.4896214896215" as="geometry" />
        </mxCell>
        <mxCell id="5CgV-2kwyRyyJ83x18Z7-46" value="6" style="strokeColor=none;fillColor=none;fontColor=#000000;fontSize=16" parent="5CgV-2kwyRyyJ83x18Z7-29" vertex="1">
          <mxGeometry x="189.09404888416572" y="51.575091575091584" width="29.091392136025494" height="21.4896214896215" as="geometry" />
        </mxCell>
        <mxCell id="5CgV-2kwyRyyJ83x18Z7-47" value="7" style="strokeColor=none;fillColor=none;fontColor=#000000;fontSize=16" parent="5CgV-2kwyRyyJ83x18Z7-29" vertex="1">
          <mxGeometry x="14.545696068012747" y="73.06471306471308" width="29.091392136025494" height="21.4896214896215" as="geometry" />
        </mxCell>
        <mxCell id="5CgV-2kwyRyyJ83x18Z7-48" value="8" style="strokeColor=none;fillColor=none;fontColor=#000000;fontSize=16" parent="5CgV-2kwyRyyJ83x18Z7-29" vertex="1">
          <mxGeometry x="43.637088204038236" y="73.06471306471308" width="29.091392136025494" height="21.4896214896215" as="geometry" />
        </mxCell>
        <mxCell id="5CgV-2kwyRyyJ83x18Z7-49" value="9" style="strokeColor=none;fillColor=none;fontColor=#000000;fontSize=16" parent="5CgV-2kwyRyyJ83x18Z7-29" vertex="1">
          <mxGeometry x="72.72848034006373" y="73.06471306471308" width="29.091392136025494" height="21.4896214896215" as="geometry" />
        </mxCell>
        <mxCell id="5CgV-2kwyRyyJ83x18Z7-50" value="10" style="strokeColor=none;fillColor=none;fontColor=#0057D8;fontSize=16;fontStyle=4" parent="5CgV-2kwyRyyJ83x18Z7-29" vertex="1">
          <mxGeometry x="101.81987247608923" y="73.06471306471308" width="29.091392136025494" height="21.4896214896215" as="geometry" />
        </mxCell>
        <mxCell id="5CgV-2kwyRyyJ83x18Z7-51" value="11" style="strokeColor=none;fillColor=#ECEDF0;fontColor=#000000;fontSize=16;rounded=1;arcSize=10" parent="5CgV-2kwyRyyJ83x18Z7-29" vertex="1">
          <mxGeometry x="130.9112646121147" y="73.06471306471308" width="29.091392136025494" height="21.4896214896215" as="geometry" />
        </mxCell>
        <mxCell id="5CgV-2kwyRyyJ83x18Z7-52" value="12" style="strokeColor=none;fillColor=none;fontColor=#000000;fontSize=16" parent="5CgV-2kwyRyyJ83x18Z7-29" vertex="1">
          <mxGeometry x="160.0026567481402" y="73.06471306471308" width="29.091392136025494" height="21.4896214896215" as="geometry" />
        </mxCell>
        <mxCell id="5CgV-2kwyRyyJ83x18Z7-54" value="14" style="strokeColor=none;fillColor=none;fontColor=#000000;fontSize=16" parent="5CgV-2kwyRyyJ83x18Z7-29" vertex="1">
          <mxGeometry x="14.545696068012747" y="94.55433455433456" width="29.091392136025494" height="21.4896214896215" as="geometry" />
        </mxCell>
        <mxCell id="5CgV-2kwyRyyJ83x18Z7-55" value="15" style="strokeColor=none;fillColor=none;fontColor=#000000;fontSize=16" parent="5CgV-2kwyRyyJ83x18Z7-29" vertex="1">
          <mxGeometry x="43.637088204038236" y="94.55433455433456" width="29.091392136025494" height="21.4896214896215" as="geometry" />
        </mxCell>
        <mxCell id="5CgV-2kwyRyyJ83x18Z7-56" value="16" style="strokeColor=none;fillColor=none;fontColor=#000000;fontSize=16" parent="5CgV-2kwyRyyJ83x18Z7-29" vertex="1">
          <mxGeometry x="72.72848034006373" y="94.55433455433456" width="29.091392136025494" height="21.4896214896215" as="geometry" />
        </mxCell>
        <mxCell id="5CgV-2kwyRyyJ83x18Z7-57" value="17" style="strokeColor=none;fillColor=none;fontColor=#000000;fontSize=16" parent="5CgV-2kwyRyyJ83x18Z7-29" vertex="1">
          <mxGeometry x="101.81987247608923" y="94.55433455433456" width="29.091392136025494" height="21.4896214896215" as="geometry" />
        </mxCell>
        <mxCell id="5CgV-2kwyRyyJ83x18Z7-58" value="18" style="strokeColor=none;fillColor=none;fontColor=#000000;fontSize=16" parent="5CgV-2kwyRyyJ83x18Z7-29" vertex="1">
          <mxGeometry x="130.9112646121147" y="94.55433455433456" width="29.091392136025494" height="21.4896214896215" as="geometry" />
        </mxCell>
        <mxCell id="5CgV-2kwyRyyJ83x18Z7-59" value="19" style="strokeColor=none;fillColor=none;fontColor=#000000;fontSize=16" parent="5CgV-2kwyRyyJ83x18Z7-29" vertex="1">
          <mxGeometry x="160.0026567481402" y="94.55433455433456" width="29.091392136025494" height="21.4896214896215" as="geometry" />
        </mxCell>
        <mxCell id="5CgV-2kwyRyyJ83x18Z7-60" value="20" style="strokeColor=none;fillColor=none;fontColor=#000000;fontSize=16" parent="5CgV-2kwyRyyJ83x18Z7-29" vertex="1">
          <mxGeometry x="189.09404888416572" y="94.55433455433456" width="29.091392136025494" height="21.4896214896215" as="geometry" />
        </mxCell>
        <mxCell id="5CgV-2kwyRyyJ83x18Z7-61" value="21" style="strokeColor=none;fillColor=none;fontColor=#000000;fontSize=16" parent="5CgV-2kwyRyyJ83x18Z7-29" vertex="1">
          <mxGeometry x="14.545696068012747" y="116.04395604395607" width="29.091392136025494" height="21.4896214896215" as="geometry" />
        </mxCell>
        <mxCell id="5CgV-2kwyRyyJ83x18Z7-62" value="22" style="strokeColor=none;fillColor=none;fontColor=#000000;fontSize=16" parent="5CgV-2kwyRyyJ83x18Z7-29" vertex="1">
          <mxGeometry x="43.637088204038236" y="116.04395604395607" width="29.091392136025494" height="21.4896214896215" as="geometry" />
        </mxCell>
        <mxCell id="5CgV-2kwyRyyJ83x18Z7-63" value="23" style="strokeColor=none;fillColor=none;fontColor=#999999;fontSize=16" parent="5CgV-2kwyRyyJ83x18Z7-29" vertex="1">
          <mxGeometry x="72.72848034006373" y="116.04395604395607" width="29.091392136025494" height="21.4896214896215" as="geometry" />
        </mxCell>
        <mxCell id="5CgV-2kwyRyyJ83x18Z7-64" value="24" style="strokeColor=none;fillColor=none;fontColor=#000000;fontSize=16" parent="5CgV-2kwyRyyJ83x18Z7-29" vertex="1">
          <mxGeometry x="101.81987247608923" y="116.04395604395607" width="29.091392136025494" height="21.4896214896215" as="geometry" />
        </mxCell>
        <mxCell id="5CgV-2kwyRyyJ83x18Z7-65" value="25" style="strokeColor=none;fillColor=none;fontColor=#000000;fontSize=16" parent="5CgV-2kwyRyyJ83x18Z7-29" vertex="1">
          <mxGeometry x="130.9112646121147" y="116.04395604395607" width="29.091392136025494" height="21.4896214896215" as="geometry" />
        </mxCell>
        <mxCell id="5CgV-2kwyRyyJ83x18Z7-66" value="26" style="strokeColor=none;fillColor=none;fontColor=#000000;fontSize=16" parent="5CgV-2kwyRyyJ83x18Z7-29" vertex="1">
          <mxGeometry x="160.0026567481402" y="116.04395604395607" width="29.091392136025494" height="21.4896214896215" as="geometry" />
        </mxCell>
        <mxCell id="5CgV-2kwyRyyJ83x18Z7-67" value="27" style="strokeColor=none;fillColor=none;fontColor=#000000;fontSize=16" parent="5CgV-2kwyRyyJ83x18Z7-29" vertex="1">
          <mxGeometry x="189.09404888416572" y="116.04395604395607" width="29.091392136025494" height="21.4896214896215" as="geometry" />
        </mxCell>
        <mxCell id="5CgV-2kwyRyyJ83x18Z7-68" value="28" style="strokeColor=none;fillColor=none;fontColor=#000000;fontSize=16" parent="5CgV-2kwyRyyJ83x18Z7-29" vertex="1">
          <mxGeometry x="14.545696068012747" y="137.53357753357753" width="29.091392136025494" height="21.4896214896215" as="geometry" />
        </mxCell>
        <mxCell id="5CgV-2kwyRyyJ83x18Z7-69" value="29" style="strokeColor=none;fillColor=none;fontColor=#000000;fontSize=16" parent="5CgV-2kwyRyyJ83x18Z7-29" vertex="1">
          <mxGeometry x="43.637088204038236" y="137.53357753357753" width="29.091392136025494" height="21.4896214896215" as="geometry" />
        </mxCell>
        <mxCell id="5CgV-2kwyRyyJ83x18Z7-70" value="30" style="strokeColor=none;fillColor=none;fontColor=#000000;fontSize=16" parent="5CgV-2kwyRyyJ83x18Z7-29" vertex="1">
          <mxGeometry x="72.72848034006373" y="137.53357753357753" width="29.091392136025494" height="21.4896214896215" as="geometry" />
        </mxCell>
        <mxCell id="5CgV-2kwyRyyJ83x18Z7-71" value="1" style="strokeColor=none;fillColor=none;fontColor=#999999;fontSize=16" parent="5CgV-2kwyRyyJ83x18Z7-29" vertex="1">
          <mxGeometry x="101.81987247608923" y="137.53357753357753" width="29.091392136025494" height="21.4896214896215" as="geometry" />
        </mxCell>
        <mxCell id="5CgV-2kwyRyyJ83x18Z7-72" value="2" style="strokeColor=none;fillColor=none;fontColor=#999999;fontSize=16" parent="5CgV-2kwyRyyJ83x18Z7-29" vertex="1">
          <mxGeometry x="130.9112646121147" y="137.53357753357753" width="29.091392136025494" height="21.4896214896215" as="geometry" />
        </mxCell>
        <mxCell id="5CgV-2kwyRyyJ83x18Z7-73" value="3" style="strokeColor=none;fillColor=none;fontColor=#999999;fontSize=16" parent="5CgV-2kwyRyyJ83x18Z7-29" vertex="1">
          <mxGeometry x="160.0026567481402" y="137.53357753357753" width="29.091392136025494" height="21.4896214896215" as="geometry" />
        </mxCell>
        <mxCell id="5CgV-2kwyRyyJ83x18Z7-74" value="4" style="strokeColor=none;fillColor=none;fontColor=#999999;fontSize=16" parent="5CgV-2kwyRyyJ83x18Z7-29" vertex="1">
          <mxGeometry x="189.09404888416572" y="137.53357753357753" width="29.091392136025494" height="21.4896214896215" as="geometry" />
        </mxCell>
        <mxCell id="5CgV-2kwyRyyJ83x18Z7-75" value="5" style="strokeColor=none;fillColor=none;fontColor=#999999;fontSize=16" parent="5CgV-2kwyRyyJ83x18Z7-29" vertex="1">
          <mxGeometry x="14.545696068012747" y="159.02319902319903" width="29.091392136025494" height="21.4896214896215" as="geometry" />
        </mxCell>
        <mxCell id="5CgV-2kwyRyyJ83x18Z7-76" value="6" style="strokeColor=none;fillColor=none;fontColor=#999999;fontSize=16" parent="5CgV-2kwyRyyJ83x18Z7-29" vertex="1">
          <mxGeometry x="43.637088204038236" y="159.02319902319903" width="29.091392136025494" height="21.4896214896215" as="geometry" />
        </mxCell>
        <mxCell id="5CgV-2kwyRyyJ83x18Z7-77" value="7" style="strokeColor=none;fillColor=none;fontColor=#999999;fontSize=16" parent="5CgV-2kwyRyyJ83x18Z7-29" vertex="1">
          <mxGeometry x="72.72848034006373" y="159.02319902319903" width="29.091392136025494" height="21.4896214896215" as="geometry" />
        </mxCell>
        <mxCell id="5CgV-2kwyRyyJ83x18Z7-78" value="8" style="strokeColor=none;fillColor=none;fontColor=#999999;fontSize=16" parent="5CgV-2kwyRyyJ83x18Z7-29" vertex="1">
          <mxGeometry x="101.81987247608923" y="159.02319902319903" width="29.091392136025494" height="21.4896214896215" as="geometry" />
        </mxCell>
        <mxCell id="5CgV-2kwyRyyJ83x18Z7-79" value="9" style="strokeColor=none;fillColor=none;fontColor=#999999;fontSize=16" parent="5CgV-2kwyRyyJ83x18Z7-29" vertex="1">
          <mxGeometry x="130.9112646121147" y="159.02319902319903" width="29.091392136025494" height="21.4896214896215" as="geometry" />
        </mxCell>
        <mxCell id="5CgV-2kwyRyyJ83x18Z7-80" value="10" style="strokeColor=none;fillColor=none;fontColor=#999999;fontSize=16" parent="5CgV-2kwyRyyJ83x18Z7-29" vertex="1">
          <mxGeometry x="160.0026567481402" y="159.02319902319903" width="29.091392136025494" height="21.4896214896215" as="geometry" />
        </mxCell>
        <mxCell id="5CgV-2kwyRyyJ83x18Z7-81" value="11" style="strokeColor=none;fillColor=none;fontColor=#999999;fontSize=16" parent="5CgV-2kwyRyyJ83x18Z7-29" vertex="1">
          <mxGeometry x="189.09404888416572" y="159.02319902319903" width="29.091392136025494" height="21.4896214896215" as="geometry" />
        </mxCell>
        <mxCell id="5CgV-2kwyRyyJ83x18Z7-84" value="&lt;span style=&quot;font-size: 22px;&quot;&gt;X&lt;/span&gt;" style="rounded=0;whiteSpace=wrap;html=1;" parent="1" vertex="1">
          <mxGeometry x="1690" y="380" width="39" height="29" as="geometry" />
        </mxCell>
        <mxCell id="5CgV-2kwyRyyJ83x18Z7-85" value="" style="rounded=0;whiteSpace=wrap;html=1;" parent="1" vertex="1">
          <mxGeometry x="80" y="440" width="16" height="16" as="geometry" />
        </mxCell>
        <mxCell id="5CgV-2kwyRyyJ83x18Z7-86" value="" style="rounded=0;whiteSpace=wrap;html=1;" parent="1" vertex="1">
          <mxGeometry x="80" y="485" width="16" height="16" as="geometry" />
        </mxCell>
        <mxCell id="5CgV-2kwyRyyJ83x18Z7-87" value="" style="rounded=0;whiteSpace=wrap;html=1;" parent="1" vertex="1">
          <mxGeometry x="80" y="535" width="16" height="16" as="geometry" />
        </mxCell>
      </root>
    </mxGraphModel>
  </diagram>
</mxfile>
